<?xml version="1.0" standalone="no"?>
<!DOCTYPE svg PUBLIC "-//W3C//DTD SVG 1.1//EN" "http://www.w3.org/Graphics/SVG/1.1/DTD/svg11.dtd" >
<svg>
<metadata>
Created by FontForge 20090914 at Mon Aug 14 14:37:35 2017
 By www-data
Copyrighted (c) 1981, 1997 by and the property of Linotype-Hell AG and/or its subsidiaries. All Rights Reserved. All Cyrillic characters designed by DoubleAlex. Helvetica is a registered Trademark of Linotype-Hell AG and/or its subsidiaries.
</metadata>
<defs>
<font id="HelveticaNeueCyr-Black" horiz-adv-x="668" >
  <font-face 
    font-family="HelveticaNeueCyr"
    font-weight="900"
    font-stretch="normal"
    units-per-em="1000"
    panose-1="2 0 9 3 5 0 0 2 0 4"
    ascent="800"
    descent="-200"
    x-height="516"
    cap-height="712"
    bbox="-82 -214 1130 911"
    underline-thickness="50"
    underline-position="-50"
    unicode-range="U+0020-U+E001"
  />
<missing-glyph horiz-adv-x="1000" 
 />
    <glyph glyph-name=".notdef" horiz-adv-x="1000" 
 />
    <glyph glyph-name="space" unicode=" " horiz-adv-x="334" 
 />
    <glyph glyph-name="exclam" unicode="!" horiz-adv-x="315" 
d="M260 712v-161l-55 -294h-96l-54 290v165h205zM260 205v-205h-205v205h205z" />
    <glyph glyph-name="quotedbl" unicode="&#x22;" horiz-adv-x="519" 
d="M209 396h-97l-27 296h150zM408 396h-97l-27 296h150z" />
    <glyph glyph-name="numbersign" unicode="#" 
d="M540 395l-18 -95h79v-136h-105l-31 -164h-166l31 164h-66l-31 -164h-166l32 164h-77v136h104l18 95h-76v136h102l31 162h164l-31 -162h67l31 162h165l-31 -162h80v-136h-106zM308 395l-17 -95h66l17 95h-66z" />
    <glyph glyph-name="dollar" unicode="$" 
d="M365 789v-82.002c73.333 -2 134.333 -19.833 183 -53.5s73 -85.834 73 -156.501v-14h-181v7c0 26 -6 45.833 -18 59.5s-31 21.834 -57 24.501v-136c84 -18.667 139.333 -33.667 166 -45c68.667 -29.333 107.334 -77.333 116.001 -144c1.33301 -11.333 2 -23 2 -35
c0 -67.333 -26.167 -122.166 -78.5 -164.499s-120.833 -63.5 -205.5 -63.5v-90h-60v90h-5c-51.333 0 -98 8 -140 24s-77 42.5 -105 79.5s-42 82.5 -42 136.5c0 2.66699 0.333008 5 1 7h200v-7c0 -62 30.333 -94.667 91 -98v151c-175.333 28 -263 99 -263 213
c0 48.667 13.167 89.334 39.5 122.001s58.166 55.667 95.499 69s80 21.333 128 24v82h60zM305 450.998l-0.000976562 124.002c-54.667 -1.33301 -82 -21.333 -82 -60c0 -6.66699 0.833008 -12.667 2.5 -18s4.5 -10 8.5 -14l10 -10
c2.66699 -2.66699 7.5 -5.33398 14.5 -8.00098s11.833 -4.33398 14.5 -5.00098s8.33398 -2.16699 17.001 -4.5s13.667 -3.83301 15 -4.5zM364.999 264l-0.000976562 -137c58 2 87 24.667 87 68c0 19.333 -6.66699 34.333 -20 45s-35.666 18.667 -66.999 24z" />
    <glyph glyph-name="percent" unicode="%" horiz-adv-x="1019" 
d="M756 709l-388 -729h-109l388 729h109zM779 365c55.333 0 98.333 -16.167 129 -48.5s46 -77.833 46 -136.5s-14.5 -105.5 -43.5 -140.5s-72.833 -52.5 -131.5 -52.5c-54.667 0 -97.167 16.333 -127.5 49s-45.5 78.667 -45.5 138c0 60 15.167 106.833 45.5 140.5
s72.833 50.5 127.5 50.5zM782 278c-32 0 -47.668 -32.335 -47.001 -97.002v-6v-8c0 -18 0.333008 -32.167 1 -42.5s4.5 -21.166 11.5 -32.499s17.5 -17 31.5 -17c17.333 0 29.333 7.83301 36 23.5s10 44.167 10 85.5c0 14.667 -0.333008 25.834 -1 33.501
s-2.16699 17 -4.5 28s-6.66602 19.167 -12.999 24.5s-14.5 8 -24.5 8zM244.999 700.998c55.333 0 98.333 -16.167 129 -48.5s46 -77.833 46 -136.5s-14.5 -105.5 -43.5 -140.5s-72.833 -52.5 -131.5 -52.5c-54.667 0 -97.167 16.333 -127.5 49s-45.5 78.667 -45.5 138
c0 60 15.167 106.833 45.5 140.5s72.833 50.5 127.5 50.5zM247.999 613.998c-32 0 -47.668 -32.335 -47.001 -97.002v-6v-8c0 -18 0.333008 -32.167 1 -42.5s4.5 -21.166 11.5 -32.499s17.5 -17 31.5 -17c17.333 0 29.333 7.83301 36 23.5s10 44.167 10 85.5
c0 14.667 -0.333008 25.834 -1 33.501s-2.16699 17 -4.5 28s-6.66602 19.167 -12.999 24.5s-14.5 8 -24.5 8z" />
    <glyph glyph-name="ampersand" unicode="&#x26;" horiz-adv-x="741" 
d="M688 350c-10.667 -66 -39.665 -123.668 -86.998 -173.001l150 -177h-235l-41 51c-34.667 -23.333 -65.834 -40.166 -93.501 -50.499s-59.834 -15.5 -96.501 -15.5c-68.667 0 -127.667 19.5 -177 58.5s-74 92.5 -74 160.5c0 44.667 13.667 85.334 41 122.001
s65.333 65.667 114 87c-36.667 44.667 -55 88 -55 130c0 51.333 20.833 94.666 62.5 129.999s92.834 53 153.501 53c59.333 0 108.833 -18.167 148.5 -54.5s59.5 -81.833 59.5 -136.5c0 -76.667 -39 -134.667 -117 -174l55 -66c11.333 12.667 20.666 31 27.999 55h164z
M347.002 473.999c17.333 10.667 30.667 21.5 40 32.5s14 25.167 14 42.5c0 13.333 -4.5 24.333 -13.5 33s-20.833 13 -35.5 13c-14 0 -25.667 -4.33301 -35 -13s-14 -19.667 -14 -33c0 -20.667 14.667 -45.667 44 -75zM290.003 282.999c-46 -21.333 -69 -46.334 -69 -75.001
c0 -17.333 6.66699 -31.666 20 -42.999s30 -17 50 -17c29.333 0 56.333 11.667 81 35z" />
    <glyph glyph-name="quotesingle" unicode="'" horiz-adv-x="296" 
d="M194 396h-92l-29 296h150z" />
    <glyph glyph-name="parenleft" unicode="(" horiz-adv-x="315" 
d="M320 721c-60 -138.667 -90 -288.333 -90 -449c0 -68 8.5 -142.333 25.5 -223s40.167 -152.667 69.5 -216h-176c-71.333 137.333 -107 282.333 -107 435c0 71.333 8.33301 147.833 25 229.5s44 156.167 82 223.5h171z" />
    <glyph glyph-name="parenright" unicode=")" horiz-adv-x="315" 
d="M273 268c0 -152.667 -35.667 -297.668 -107 -435.001h-176c29.333 63.333 52.5 135.333 69.5 216s25.5 155 25.5 223c0 160.667 -30 310.334 -90 449.001h171c38 -67.333 65.333 -141.833 82 -223.5s25 -158.167 25 -229.5z" />
    <glyph glyph-name="asterisk" unicode="*" horiz-adv-x="463" 
d="M443 526l-126 -39l80 -106l-90 -67l-78 111l-77 -111l-89 67l83 106l-127 39l35 106l123 -47l-3 135h115l-6 -135l123 47z" />
    <glyph glyph-name="plus" unicode="+" horiz-adv-x="600" 
d="M42 340h177v180h164v-180h177v-157h-177v-183h-164v183h-177v157z" />
    <glyph glyph-name="comma" unicode="," horiz-adv-x="334" 
d="M250 205l-0.000976562 -180.999c0 -60.667 -18.667 -110.5 -56 -149.5s-86.666 -58.833 -147.999 -59.5v92c27.333 6 48 16.167 62 30.5s22 35.166 24 62.499h-86v205h204z" />
    <glyph glyph-name="hyphen" unicode="-" horiz-adv-x="407" 
d="M360 352v-170h-313v170h313z" />
    <glyph glyph-name="period" unicode="." horiz-adv-x="334" 
d="M251 205v-205h-206v205h206z" />
    <glyph glyph-name="slash" unicode="/" horiz-adv-x="426" 
d="M435 731l-257 -748h-187l257 748h187z" />
    <glyph glyph-name="zero" unicode="0" 
d="M334 700c64 0 118.833 -16.999 164.5 -50.999s78.834 -77 99.501 -129s31 -109.667 31 -173c0 -64.667 -10.167 -123.334 -30.5 -176.001s-53.333 -95.834 -99 -129.501s-100.834 -50.5 -165.501 -50.5c-95.333 0 -168.666 34.5 -219.999 103.5s-77 152.833 -77 251.5
c0 106.667 27.167 192.334 81.5 257.001s126.166 97 215.499 97zM334 543.001c-20 0 -37 -4.83301 -51 -14.5s-24.667 -21.167 -32 -34.5s-13 -30.5 -17 -51.5s-6.33301 -38.667 -7 -53s-1 -31.5 -1 -51.5c0 -126.667 36 -190 108 -190c71.333 0 107 66.333 107 199
c0 66.667 -8.66699 116 -26 148s-44.333 48 -81 48z" />
    <glyph glyph-name="one" unicode="1" 
d="M488 693l-0.000976562 -693h-208v397h-162v146h19c50.667 0 93.834 13.5 129.501 40.5s54.167 63.5 55.5 109.5h166z" />
    <glyph glyph-name="two" unicode="2" 
d="M635 169v-168.999h-600v12c0 31.333 4.16699 60.166 12.5 86.499s20.833 50.5 37.5 72.5s34.667 41.333 54 58s42.333 34.334 69 53.001c22.667 16 47.334 31.833 74.001 47.5l62 36c14.667 8.33301 28.834 17.666 42.501 27.999s23.167 20.666 28.5 30.999
s8 22.5 8 36.5c-0.666992 21.333 -8.5 38.166 -23.5 50.499s-35.167 18.5 -60.5 18.5c-38.667 0 -65.167 -11.333 -79.5 -34s-22.5 -54 -24.5 -94h-187v10c0 94 25.333 165.5 76 214.5s125 73.5 223 73.5c83.333 0 150 -20.167 200 -60.5s75 -93.833 75 -160.5
c0 -28 -3.5 -53 -10.5 -75s-18.833 -41.833 -35.5 -59.5s-32.167 -32.167 -46.5 -43.5s-34.833 -25.666 -61.5 -42.999c-14 -9.33301 -39.833 -24.666 -77.5 -45.999s-65.834 -39 -84.501 -53c59.333 6 110.666 9 153.999 9z" />
    <glyph glyph-name="three" unicode="3" 
d="M54 463c3.33301 79.333 30.1699 138.672 80.5029 178.005s117.166 59 200.499 59s149.833 -17.833 199.5 -53.5s74.5 -83.834 74.5 -144.501c0 -34.667 -8.83301 -63.5 -26.5 -86.5s-41.834 -37.167 -72.501 -42.5c38 -8.66699 67.5 -26.334 88.5 -53.001
s31.5 -60 31.5 -100c0 -32 -5.66699 -61 -17 -87s-26.5 -47.667 -45.5 -65s-41.333 -31.833 -67 -43.5s-52.167 -20.167 -79.5 -25.5s-55.666 -8 -84.999 -8c-88.667 0 -161.167 21 -217.5 63s-84.5 105 -84.5 189c0 7.33301 0.333008 13.666 1 18.999h188v-10
c0 -64.667 34.667 -97 104 -97c31.333 0 55.666 6.33301 72.999 19s26 30.667 26 54c0 48.667 -36 73 -108 73c-0.666992 0 -2.5 -0.166992 -5.5 -0.5s-7.16699 -0.5 -12.5 -0.5h-17h-8v129c8 -0.666992 19 -1 33 -1c25.333 0 42.666 0.333008 51.999 1
c19.333 1.33301 34.833 7.16602 46.5 17.499s17.5 23.166 17.5 38.499c0 18.667 -8 33.667 -24 45s-37.667 17 -65 17c-62 0 -93.333 -28 -94 -84h-187z" />
    <glyph glyph-name="four" unicode="4" 
d="M635 315v-164h-91v-151h-203v151h-306v182l311 359h198v-377h91zM348 314v132l3 64l-165 -199c30 2 50.667 3 62 3h100z" />
    <glyph glyph-name="five" unicode="5" 
d="M587 692l-0.000976562 -166h-318l-8 -42c-2.66699 -16 -8 -35.667 -16 -59c39.333 34 89 51 149 51c71.333 0 127.833 -20.333 169.5 -61s62.5 -96 62.5 -166c0 -86 -28.667 -150.5 -86 -193.5s-129.666 -64.5 -216.999 -64.5c-86.667 0 -157.167 18.5 -211.5 55.5
s-83.5 95.5 -87.5 175.5h194c4 -48.667 38.667 -73 104 -73c33.333 0 59.333 8.5 78 25.5s28 40.833 28 71.5c0 31.333 -9.16699 55.5 -27.5 72.5s-44.833 25.5 -79.5 25.5c-43.333 0 -74 -16.667 -92 -50h-181l69 398h470z" />
    <glyph glyph-name="six" unicode="6" 
d="M622 509l-183.997 0.000976562c-9.33301 36 -35 54 -77 54c-22 0 -40.833 -4 -56.5 -12s-28 -19.667 -37 -35s-15.833 -30.833 -20.5 -46.5s-8.33398 -33.834 -11.001 -54.501c42 34 93 51 153 51c74.667 0 133.167 -19.333 175.5 -58s63.5 -92.667 63.5 -162
c0 -78 -27.333 -140 -82 -186s-121.334 -69 -200.001 -69c-98.667 0 -173.334 31.667 -224.001 95s-76 144.333 -76 243c0 52 6 99.833 18 143.5s30 82.667 54 117s56.667 61.333 98 81s89 29.5 143 29.5c69.333 0 127 -15.667 173 -47s76 -79.333 90 -144zM344.003 342.001
c-28 0 -51.167 -9.33203 -69.5 -27.999s-27.5 -42.334 -27.5 -71.001c0 -28 9.16699 -51.167 27.5 -69.5s41.5 -27.5 69.5 -27.5s51.333 9.33301 70 28s28 42 28 70c0 27.333 -9.33301 50.5 -28 69.5s-42 28.5 -70 28.5z" />
    <glyph glyph-name="seven" unicode="7" 
d="M599 692l-0.000976562 -159.998c-138.667 -146 -208 -318 -208 -516v-16h-219c-0.666992 3.33301 -1 6.66602 -1 9.99902c0 81.333 24.333 175.666 73 282.999s101.334 183.333 158.001 228c-68.667 -2.66699 -111.667 -4 -129 -4h-208v175h534z" />
    <glyph glyph-name="eight" unicode="8" 
d="M164 366c-72 22 -108.004 69.0039 -108.004 141.004c0 59.333 25.167 106.333 75.5 141s117.833 52 202.5 52c32.667 0 64.334 -3.33301 95.001 -10s60.334 -16.834 89.001 -30.501s51.667 -33.5 69 -59.5s26 -56.333 26 -91c0 -37.333 -9.16699 -68.333 -27.5 -93
s-44.833 -41.334 -79.5 -50.001c90.667 -22.667 136 -75.667 136 -159c0 -38.667 -9.16699 -72.667 -27.5 -102s-42.666 -51.833 -72.999 -67.5s-62.5 -27.334 -96.5 -35.001s-69.333 -11.5 -106 -11.5c-30 0 -58.667 1.83301 -86 5.5s-55.166 10.5 -83.499 20.5
s-52.833 22.667 -73.5 38s-37.5 35.666 -50.5 60.999s-19.5 54.333 -19.5 87c0 88.667 46 143 138 163zM332.996 565.004c-32.667 0 -58.334 -6.33203 -77.001 -18.999s-28 -30.334 -28 -53.001c0 -23.333 9.5 -41.5 28.5 -54.5s45.833 -19.5 80.5 -19.5
c32.667 0 58.334 6.83301 77.001 20.5s28 32.167 28 55.5c0 46.667 -36.333 70 -109 70zM331.996 300.005c-35.333 0 -62.666 -7.16602 -81.999 -21.499s-29 -34.5 -29 -60.5c0 -26.667 10 -47.334 30 -62.001s48.333 -22 85 -22c35.333 0 62.666 7.16699 81.999 21.5
s29 34.833 29 61.5c0 26 -10.167 46.333 -30.5 61s-48.5 22 -84.5 22z" />
    <glyph glyph-name="nine" unicode="9" 
d="M45 182h184c11.333 -42.667 41 -64 89 -64c17.333 0 32.333 3.16699 45 9.5s22.5 13.166 29.5 20.499s13.167 18.833 18.5 34.5s8.66602 27.834 9.99902 36.501s3.33301 22.667 6 42c0.666992 6 1.33398 10.667 2.00098 14c-34 -34 -82.333 -51 -145 -51
c-75.333 0 -135.333 17.833 -180 53.5s-67 90.5 -67 164.5c0 78 27.333 140.5 82 187.5s122 70.5 202 70.5c97.333 0 171.833 -31.833 223.5 -95.5s77.5 -146.167 77.5 -247.5c0 -50.667 -6 -97.5 -18 -140.5s-30 -81.5 -54 -115.5s-56.333 -60.833 -97 -80.5
s-87.334 -29.5 -140.001 -29.5c-77.333 0 -139.166 16.5 -185.499 49.5s-73.833 80.167 -82.5 141.5zM322 542c-28 0 -51.167 -8.83398 -69.5 -26.501s-27.5 -40.167 -27.5 -67.5c0 -28 9.33301 -51.5 28 -70.5s42 -28.5 70 -28.5c27.333 0 50.333 9.33301 69 28
s28 41.334 28 68.001c0 28 -9.33301 51.167 -28 69.5s-42 27.5 -70 27.5z" />
    <glyph glyph-name="colon" unicode=":" horiz-adv-x="334" 
d="M259 510v-204h-203v204h203zM259 205v-205h-203v205h203z" />
    <glyph glyph-name="semicolon" unicode=";" horiz-adv-x="334" 
d="M258 509v-204h-204v204h204zM258 205v-167.001c0 -71.333 -16.167 -125.666 -48.5 -162.999s-84.166 -57.333 -155.499 -60v91c53.333 8 82.666 39.333 87.999 94h-88v205h204z" />
    <glyph glyph-name="less" unicode="&#x3c;" horiz-adv-x="600" 
d="M589 -28l-578 217v145l578 216v-169l-364 -120l364 -120v-169z" />
    <glyph glyph-name="equal" unicode="=" horiz-adv-x="600" 
d="M21 454h559v-153h-559v153zM21 234h559v-152h-559v152z" />
    <glyph glyph-name="greater" unicode="&#x3e;" horiz-adv-x="600" 
d="M11 550l578 -216v-145l-578 -217v169l365 120l-365 120v169z" />
    <glyph glyph-name="question" unicode="?" horiz-adv-x="574" 
d="M16 475c4 80.667 30.332 143.17 78.999 187.503s115.334 66.5 200.001 66.5c73.333 0 135.333 -18.833 186 -56.5s76 -90.5 76 -158.5c0 -38 -9 -68.833 -27 -92.5s-45.667 -45.167 -83 -64.5l-16 -8c-8 -4 -13.333 -6.83301 -16 -8.5s-7.16699 -4.33398 -13.5 -8.00098
s-10.5 -6.66699 -12.5 -9l-9 -10.5c-4 -4.66699 -6.66699 -9.16699 -8 -13.5s-2.66602 -9.5 -3.99902 -15.5s-2 -12.333 -2 -19v-10h-183v10c0 50 5.66699 87.5 17 112.5s37 46.833 77 65.5c1.33301 0.666992 4.66602 2.16699 9.99902 4.5s8.66602 3.83301 9.99902 4.5
l9 4.5c4.66699 2.33301 7.83398 4.16602 9.50098 5.49902s4.33398 3.16602 8.00098 5.49902s6.16699 4.5 7.5 6.5s3.16602 4.5 5.49902 7.5s4 6 5 9s1.83301 6.5 2.5 10.5s1 8 1 12c0 14.667 -5 26.5 -15 35.5s-23.333 13.5 -40 13.5c-44.667 0 -67 -29 -67 -87h-207z
M374.999 205.003v-205h-204v205h204z" />
    <glyph glyph-name="at" unicode="@" horiz-adv-x="800" 
d="M457 224c-32 -44 -73.334 -65.998 -124.001 -65.998c-44 0 -79.167 15.167 -105.5 45.5s-39.5 69.833 -39.5 118.5c0 65.333 20.833 122.666 62.5 171.999s90.5 74 146.5 74c46 0 79.333 -15.667 100 -47l9 30h122l-63 -213c-8 -28.667 -12 -48.667 -12 -60
c0 -17.333 8.66699 -26 26 -26c24 0 46.833 18.5 68.5 55.5s32.5 78.833 32.5 125.5c0 66 -23.333 119.167 -70 159.5s-108.667 60.5 -186 60.5c-92 0 -167.833 -29.167 -227.5 -87.5s-89.5 -131.833 -89.5 -220.5c0 -84 28.5 -152.667 85.5 -206s130.833 -80 221.5 -80
c48.667 0 93.334 8 134.001 24s84.667 41 132 75l45 -61c-102.667 -76.667 -207.667 -115 -315 -115c-112.667 0 -206.167 34.667 -280.5 104s-111.5 156.666 -111.5 261.999c0 108 39 198.667 117 272s174 110 288 110c100.667 0 183.5 -28.333 248.5 -85
s97.5 -129.334 97.5 -218.001c0 -69.333 -21.667 -131.666 -65 -186.999s-93.333 -83 -150 -83c-24 0 -44.833 6.16699 -62.5 18.5s-29.167 28.5 -34.5 48.5zM423.999 474.002c-26.667 0 -49.333 -18.833 -68 -56.5s-28 -73.167 -28 -106.5c0 -39.333 12.667 -59 38 -59
c26 0 48.167 23 66.5 69s27.5 84.333 27.5 115c0 25.333 -12 38 -36 38z" />
    <glyph glyph-name="A" unicode="A" horiz-adv-x="722" 
d="M469 712l262 -712h-221l-35 101h-229l-35 -101h-221l263 712h216zM427 254l-38 122c-8.66699 28.667 -17.667 64.667 -27 108c-10.667 -42.667 -20.667 -79 -30 -109c-10 -32.667 -23 -73 -39 -121h134z" />
    <glyph glyph-name="B" unicode="B" horiz-adv-x="741" 
d="M59 712h359.001c168.667 0 253 -59.333 253 -178c0 -60 -29.667 -107.667 -89 -143c82.667 -28.667 124 -87 124 -175c0 -40 -7.5 -74.5 -22.5 -103.5s-35.833 -51.5 -62.5 -67.5s-55.334 -27.5 -86.001 -34.5s-64.667 -10.5 -102 -10.5h-374v712zM271.001 550
l-0.000976562 -110.001h123c20.667 0 36.834 4.83301 48.501 14.5s17.5 22.834 17.5 39.501c0 37.333 -25.333 56 -76 56h-113zM271 302.999v-134h135c55.333 0 83 22 83 66c0 45.333 -27.667 68 -83 68h-135z" />
    <glyph glyph-name="C" unicode="C" horiz-adv-x="759" 
d="M727 281c-6 -94.667 -39.833 -168 -101.5 -220s-137.834 -78 -228.501 -78c-107.333 0 -193.666 35.667 -258.999 107s-98 160.666 -98 267.999c0 106 33.5 194.5 100.5 265.5s153.833 106.5 260.5 106.5c86.667 0 160.834 -26.833 222.501 -80.5
s95.167 -120.5 100.5 -200.5h-212c-6 32 -19 56.667 -39 74s-45.333 26 -76 26c-32 0 -58.833 -10.167 -80.5 -30.5s-36.5 -44.166 -44.5 -71.499s-12 -57 -12 -89c0 -59.333 12.167 -106 36.5 -140s57.833 -51 100.5 -51c65.333 0 103.666 38 114.999 114h215z" />
    <glyph glyph-name="D" unicode="D" horiz-adv-x="778" 
d="M62 712h317.999c110 0 197.333 -31.5 262 -94.5s97 -149.5 97 -259.5c0 -117.333 -31.167 -206.333 -93.5 -267s-152.166 -91 -269.499 -91h-314v712zM275.999 533v-353.001h86c52.667 0 92.5 15.333 119.5 46s40.5 73.334 40.5 128.001c0 59.333 -15.833 104 -47.5 134
s-76.167 45 -133.5 45h-65z" />
    <glyph glyph-name="E" unicode="E" horiz-adv-x="704" 
d="M649 712v-173h-375v-89h340v-165h-340v-104h385v-181h-600v712h590z" />
    <glyph glyph-name="F" unicode="F" horiz-adv-x="630" 
d="M609 712v-179h-333v-109h287v-168h-287v-256h-218v712h551z" />
    <glyph glyph-name="G" unicode="G" horiz-adv-x="778" 
d="M728 392l0.00195312 -392.001h-139l-7 73c-50 -59.333 -118.667 -89 -206 -89c-100.667 0 -182.334 34.333 -245.001 103s-94 158.334 -94 269.001c0 109.333 33.833 198.833 101.5 268.5s154.834 104.5 261.501 104.5c81.333 0 152.166 -24.5 212.499 -73.5
s95.166 -113.167 104.499 -192.5h-210c-14.667 55.333 -51.667 83 -111 83c-92.667 0 -139 -67 -139 -201c0 -62 12.667 -109 38 -141s62.666 -48 111.999 -48c66.667 0 107.334 27.667 122.001 83h-94v153h293z" />
    <glyph glyph-name="H" unicode="H" horiz-adv-x="759" 
d="M701 712v-712h-218v281h-206v-281h-219v712h219v-239h206v239h218z" />
    <glyph glyph-name="I" unicode="I" horiz-adv-x="333" 
d="M276 712v-712h-218v712h218z" />
    <glyph glyph-name="J" unicode="J" horiz-adv-x="611" 
d="M559 712v-474.002c0 -83.333 -22.833 -146.666 -68.5 -189.999s-110.834 -65 -195.501 -65c-85.333 0 -150.5 23 -195.5 69s-67.5 110.667 -67.5 194v53h196v-21v-18.5v-20.5c0 -3.33301 0.333008 -9.66602 1 -18.999s1.83398 -16 3.50098 -20l6.5 -16
c2.66699 -6.66699 6.16699 -11.5 10.5 -14.5s9.66602 -5.66699 15.999 -8s13.5 -3.5 21.5 -3.5c18.667 0 32.334 5.5 41.001 16.5s13 28.833 13 53.5v484h218z" />
    <glyph glyph-name="K" unicode="K" horiz-adv-x="778" 
d="M747 712l-258 -277l299 -435h-273l-174 277l-64 -67v-210h-215v712h216l-1 -144c0 -10.667 -1 -47 -3 -109l203 253h270z" />
    <glyph glyph-name="L" unicode="L" horiz-adv-x="630" 
d="M593 186v-186h-535v712h219v-526h316z" />
    <glyph glyph-name="M" unicode="M" horiz-adv-x="944" 
d="M885 712l-0.000976562 -712h-205v107c0 126 2.66699 261 8 405l-134 -512h-163l-135 512c4.66699 -108 7.33398 -233 8.00098 -375l1 -137h-205v712h313l46 -185c24 -99.333 42.333 -189.333 55 -270c10 57.333 30 149 60 275l44 180h307z" />
    <glyph glyph-name="N" unicode="N" horiz-adv-x="759" 
d="M701 712l0.000976562 -712.001h-209l-177 303c-16.667 28.667 -34.667 64.334 -54 107.001c4.66699 -42.667 7 -97 7 -163l1 -247h-211v712h216l154 -267c31.333 -53.333 54.666 -98 69.999 -134c-4 54 -6 108.667 -6 164l-1 237h210z" />
    <glyph glyph-name="O" unicode="O" horiz-adv-x="796" 
d="M403 731c106.667 0 192.666 -34.5 257.999 -103.5s98 -159.5 98 -271.5c0 -111.333 -32.833 -201.333 -98.5 -270s-152.167 -103 -259.5 -103c-109.333 0 -197.333 34.167 -264 102.5s-100 158.833 -100 271.5s33.333 203.167 100 271.5s155.334 102.5 266.001 102.5z
M399.999 556c-44 0 -78.501 -17.333 -103.501 -52s-37.5 -82.667 -37.5 -144c0 -63.333 12.333 -112.5 37 -147.5s59.667 -52.5 105 -52.5c44.667 0 78.667 17.5 102 52.5s35 86.167 35 153.5c0 59.333 -12.167 105.833 -36.5 139.5s-58.166 50.5 -101.499 50.5z" />
    <glyph glyph-name="P" unicode="P" horiz-adv-x="704" 
d="M58 712h310c207.333 0 311 -84.333 311 -253c0 -78.667 -24.5 -138.167 -73.5 -178.5s-113.833 -60.5 -194.5 -60.5h-136v-220h-217v712zM275 537v-151h105c60 0 90 25 90 75c0 50.667 -31.333 76 -94 76h-101z" />
    <glyph glyph-name="Q" unicode="Q" horiz-adv-x="796" 
d="M760 21l-97 -98.001l-102 103c-45.333 -28.667 -103 -43 -173 -43c-104.667 0 -189.334 34.333 -254.001 103s-97 158.334 -97 269.001c0 109.333 34.333 199.333 103 270s156.334 106 263.001 106c102 0 186.333 -34.833 253 -104.5s100 -157.5 100 -263.5
c0 -52 -7.66699 -100.333 -23 -145s-36.333 -79.667 -63 -105zM523 259.999c10 20.667 15 53.333 15 98c0 63.333 -12 112 -36 146s-58.667 51 -104 51c-44.667 0 -79.334 -17.5 -104.001 -52.5s-37 -83.833 -37 -146.5c0 -60 12.333 -108.5 37 -145.5
s57.334 -55.5 98.001 -55.5c14 0 26.667 3 38 9l-64 62l97 96z" />
    <glyph glyph-name="R" unicode="R" horiz-adv-x="741" 
d="M57 712l383 -0.00195312c30 0 59 -3.33301 87 -10s55 -17.5 81 -32.5s46.833 -36.833 62.5 -65.5s23.5 -62.667 23.5 -102c0 -38.667 -9.5 -73.667 -28.5 -105s-44.5 -54.333 -76.5 -69c32 -8 56.333 -29.333 73 -64s27 -72 31 -112l7 -75
c3.33301 -38 9.33301 -63.667 18 -77h-216c-6 12.667 -10.333 35 -13 67l-3 40c-2 24 -4.5 43.333 -7.5 58s-8.5 29.334 -16.5 44.001s-20 25.334 -36 32.001s-36.333 10 -61 10h-92v-251h-216v712zM273 546.998v-146h120c59.333 0 89 24.667 89 74c0 48 -33.667 72 -101 72
h-108z" />
    <glyph glyph-name="S" unicode="S" horiz-adv-x="667" 
d="M617 496l-204.997 -0.00195312c-0.666992 21.333 -9 38 -25 50s-38 18 -66 18c-48 0 -72 -14.667 -72 -44c0 -8 4 -15.667 12 -23s19.167 -13.5 33.5 -18.5s27.5 -9.16699 39.5 -12.5s25.5 -6.5 40.5 -9.5s23.833 -4.83301 26.5 -5.5c28 -7.33301 52 -14.333 72 -21
s41.667 -16.167 65 -28.5s42.166 -26 56.499 -41s26.5 -34 36.5 -57s15 -48.833 15 -77.5c0 -74 -28 -132.833 -84 -176.5s-131.667 -65.5 -227 -65.5c-99.333 0 -177.666 22.833 -234.999 68.5s-86.666 108.167 -87.999 187.5h219c3.33301 -61.333 40.333 -92 111 -92
c27.333 0 49 5.33301 65 16s24 25 24 43c0 11.333 -4.66699 21 -14 29c-8.66699 7.33301 -25.334 15.333 -50.001 24s-53.834 17.834 -87.501 27.501s-54.834 16.167 -63.501 19.5c-28.667 10 -52.334 19.667 -71.001 29s-36.667 21.5 -54 36.5s-30.166 33.333 -38.499 55
s-12.5 47.167 -12.5 76.5c0 66.667 26.5 120.5 79.5 161.5s122.5 61.5 208.5 61.5c90.667 0 161.167 -20.167 211.5 -60.5s76.166 -97.166 77.499 -170.499z" />
    <glyph glyph-name="T" unicode="T" 
d="M642 712v-183h-200v-529h-218v529h-199v183h617z" />
    <glyph glyph-name="U" unicode="U" horiz-adv-x="759" 
d="M703 712l-0.000976562 -421c0 -108.667 -27.167 -186.5 -81.5 -233.5s-135.166 -70.5 -242.499 -70.5c-215.333 0 -323 97.333 -323 292v433h218v-436c0 -37.333 8.66699 -65 26 -83s45 -27 83 -27c68 0 102 36.667 102 110v436h218z" />
    <glyph glyph-name="V" unicode="V" horiz-adv-x="648" 
d="M663 712l-219 -712h-246l-213 712h221l36 -127c42.667 -150 69.667 -272.333 81 -367c12.667 90 40 212 82 366l35 128h223z" />
    <glyph glyph-name="W" unicode="W" horiz-adv-x="963" 
d="M967 712l-195 -712h-213l-33 174c-24 128 -39.667 224.333 -47 289c-3.33301 -50 -17.666 -145.667 -42.999 -287l-31 -176h-215l-195 712h215l36 -161c27.333 -124 44.666 -238 51.999 -342c6 74.667 23.667 187 53 337l33 166h193l29 -142c32 -160.667 51 -281 57 -361
c8 99.333 28.333 224.333 61 375l28 128h215z" />
    <glyph glyph-name="X" unicode="X" horiz-adv-x="741" 
d="M725 712l-227 -334l255 -378h-264l-69 116c-18.667 31.333 -36 65.333 -52 102c-22 -44.667 -41 -79.667 -57 -105l-68 -113h-253l259 378l-235 334h256l54 -94c17.333 -29.333 35 -64.333 53 -105c18 38 33.667 69.333 47 94l58 105h243z" />
    <glyph glyph-name="Y" unicode="Y" horiz-adv-x="667" 
d="M695 712l-254.999 -454.999v-257h-215v262l-254 450h242l53 -113c35.333 -76 57.666 -128.333 66.999 -157c16.667 43.333 42 100.666 76 171.999l47 98h239z" />
    <glyph glyph-name="Z" unicode="Z" horiz-adv-x="685" 
d="M646 712l-0.000976562 -161l-232 -253c-22 -24 -60 -63 -114 -117c90 3.33301 141.333 5 154 5h206v-186h-636v174l248 270c22.667 24.667 52.334 54 89.001 88c-82 -2 -125.667 -3 -131 -3l-188 -1v184h604z" />
    <glyph glyph-name="bracketleft" unicode="[" horiz-adv-x="407" 
d="M397 712v-153h-148v-565h148v-152h-329v870h329z" />
    <glyph glyph-name="backslash" unicode="\" horiz-adv-x="426" 
d="M435 -17h-187l-257 748h187z" />
    <glyph glyph-name="bracketright" unicode="]" horiz-adv-x="407" 
d="M339 712v-870h-329v152h148v566h-148v152h329z" />
    <glyph glyph-name="asciicircum" unicode="^" horiz-adv-x="600" 
d="M48 256l176 436h153l175 -436h-158l-94 255l-93 -255h-159z" />
    <glyph glyph-name="underscore" unicode="_" horiz-adv-x="500" 
d="M0 -125v50h500v-50h-500z" />
    <glyph glyph-name="grave" unicode="`" horiz-adv-x="278" 
d="M126 712l101 -145h-137l-172 145h208z" />
    <glyph glyph-name="a" unicode="a" horiz-adv-x="611" 
d="M583 0h-200c-4.66699 17.333 -7.33398 33.333 -8.00098 48c-43.333 -43.333 -98.333 -65 -165 -65c-58.667 0 -104.5 14.333 -137.5 43s-49.5 68.334 -49.5 119.001c0 26 5.33301 48.667 16 68s21.5 34.166 32.5 44.499s29.833 19.666 56.5 27.999s45.667 13.5 57 15.5
s33.333 5.33301 66 10c5.33301 0.666992 9.33301 1.33398 12 2.00098c3.33301 0.666992 11.333 1.5 24 2.5s22.5 2.16699 29.5 3.5s15.333 3.66602 25 6.99902s16.834 8.33301 21.501 15s7 14.667 7 24c0 30 -21.667 45 -65 45c-24 0 -41.333 -3.66699 -52 -11
s-17.667 -21 -21 -41h-185c4.66699 115.333 90.667 173 258 173c132.667 0 214 -32 244 -96c9.33301 -19.333 14 -50.666 14 -93.999c0 -20.667 -0.333008 -51.167 -1 -91.5s-1 -74.5 -1 -102.5c0 -68.667 7.33301 -117.667 22 -147zM371 235
c-14.667 -10 -45.333 -20 -92 -30c-36 -8 -54 -26 -54 -54c0 -16 5 -28.667 15 -38s23.667 -14 41 -14c36 0 62 13.333 78 40c8 13.333 12 35 12 65v31z" />
    <glyph glyph-name="b" unicode="b" horiz-adv-x="648" 
d="M252 712l-0.000976562 -193l-1 -58c22 24.667 44.167 42.167 66.5 52.5s49.833 15.5 82.5 15.5c48 0 89 -13.333 123 -40s58.167 -59.5 72.5 -98.5s21.5 -82.167 21.5 -129.5c0 -82 -20.667 -148.167 -62 -198.5s-95.666 -75.5 -162.999 -75.5
c-63.333 0 -112.333 23 -147 69v-56h-190v712h197zM331.999 379c-27.333 0 -48.5 -10.168 -63.5 -30.501s-22.5 -49.166 -22.5 -86.499c0 -78.667 29 -118 87 -118c56.667 0 85 39 85 117c0 36.667 -7.66699 65.5 -23 86.5s-36.333 31.5 -63 31.5z" />
    <glyph glyph-name="c" unicode="c" horiz-adv-x="611" 
d="M585 207c-9.33301 -69.333 -37.832 -123.332 -85.499 -161.999s-109.167 -58 -184.5 -58c-83.333 0 -151.166 24.667 -203.499 74s-78.5 113.666 -78.5 192.999c0 82 26 148.167 78 198.5s120.333 75.5 205 75.5c74.667 0 136.167 -19 184.5 -57s75.166 -88 80.499 -150
h-189c-2.66699 20.667 -10.834 37 -24.501 49s-30.167 18 -49.5 18c-58 0 -87 -45 -87 -135c0 -81.333 28.667 -122 86 -122c44.667 0 71 25.333 79 76h189z" />
    <glyph glyph-name="d" unicode="d" horiz-adv-x="648" 
d="M593 712v-712.001h-189v56c-35.333 -46 -83.333 -69 -144 -69c-69.333 0 -124.833 25 -166.5 75s-62.5 116.667 -62.5 200c0 80.667 19.833 145.334 59.5 194.001s92.5 73 158.5 73c58.667 0 107.667 -23 147 -69v252h197zM316 377.999c-57.333 0 -86 -39.667 -86 -119
c0 -76.667 28.667 -115 86 -115c28 0 49.5 10 64.5 30s22.5 48.667 22.5 86c0 38 -7.5 67.167 -22.5 87.5s-36.5 30.5 -64.5 30.5z" />
    <glyph glyph-name="e" unicode="e" horiz-adv-x="630" 
d="M590 155c-15.333 -54.667 -48.5039 -96.666 -99.5039 -125.999s-106.833 -44 -167.5 -44c-84 0 -153.667 23.667 -209 71s-83 112.666 -83 195.999c0 80.667 26.833 147 80.5 199s121.834 78 204.501 78c86.667 0 155.834 -27 207.501 -81s77.5 -126.667 77.5 -218v-15
h-380c1.33301 -32.667 10.833 -58 28.5 -76s41.834 -27 72.501 -27c36.667 0 64.334 14.333 83.001 43h185zM407.996 314.001c-5.33301 58.667 -35.667 88 -91 88c-53.333 0 -85 -29.333 -95 -88h186z" />
    <glyph glyph-name="f" unicode="f" horiz-adv-x="389" 
d="M390 710l0.00195312 -135c-14.667 0.666992 -29.334 1 -44.001 1c-26.667 0 -43.667 -2.33301 -51 -7s-11 -14.667 -11 -30v-23h102v-122h-102v-394h-197v394h-81v122h81v21c0 36 5.16699 65.833 15.5 89.5s26 41.5 47 53.5s43.667 20.333 68 25s53.5 7 87.5 7
c19.333 0 47.666 -0.666992 84.999 -2z" />
    <glyph glyph-name="g" unicode="g" horiz-adv-x="630" 
d="M580 516l-0.000976562 -443c0 -89.333 -23 -152.833 -69 -190.5s-114.333 -56.5 -205 -56.5c-34.667 0 -65.667 2.33301 -93 7s-53.666 13 -78.999 25s-46 29.667 -62 53s-26 51.666 -30 84.999h197c5.33301 -17.333 13.333 -29.333 24 -36s27 -10 49 -10
c31.333 0 52 7.83301 62 23.5s15 38.834 15 69.501v59c-36 -43.333 -84.667 -65 -146 -65c-68 0 -121.333 21.667 -160 65s-58 103.333 -58 180c0 76 19.833 136.5 59.5 181.5s93.167 67.5 160.5 67.5c34 0 62 -6 84 -18s42 -31.667 60 -59v62h191zM303.999 384
c-28 0 -49.5 -9 -64.5 -27s-22.5 -43.667 -22.5 -77s7.66699 -59.166 23 -77.499s37 -27.5 65 -27.5c28.667 0 50.5 9.16699 65.5 27.5s22.5 44.166 22.5 77.499s-7.66699 59 -23 77s-37.333 27 -66 27z" />
    <glyph glyph-name="h" unicode="h" horiz-adv-x="648" 
d="M250 712v-261c40 51.333 92.667 77 158 77c124 0 186 -65 186 -195v-333h-196v285c0 27.333 -5 48.333 -15 63s-28.333 22 -55 22c-52 0 -78 -35.333 -78 -106v-264h-194v712h194z" />
    <glyph glyph-name="i" unicode="i" horiz-adv-x="315" 
d="M256 712v-138h-198v138h198zM256 516v-516h-198v516h198z" />
    <glyph glyph-name="j" unicode="j" horiz-adv-x="315" 
d="M259 516l-0.00390625 -503.999c0 -37.333 -4.16699 -68 -12.5 -92s-21.666 -42.333 -39.999 -55s-39.166 -21.167 -62.499 -25.5s-53 -6.5 -89 -6.5c-9.33301 0 -23.166 0.166992 -41.499 0.5s-32.166 0.5 -41.499 0.5v157c4 -0.666992 8 -1 12 -1
c32.667 0 53.5 3.16699 62.5 9.5s13.5 24.166 13.5 53.499v463h199zM258.996 712.001v-141h-199v141h199z" />
    <glyph glyph-name="k" unicode="k" horiz-adv-x="611" 
d="M595 516l-183.001 -195l213 -321h-234l-108 189l-34 -34v-155h-196v712h196v-3v-3v-3v-3v-3v-3v-3v-3v-3v-3v-3v-3v-3v-3v-3v-3v-3v-3v-3v-3v-3v-3v-3v-3v-3v-3v-3v-3v-3v-3v-3v-3v-3v-3v-3v-3v-3v-3v-3v-3v-3v-3v-3v-3v-3v-3v-3v-3v-3v-3v-3v-3v-3v-3v-3v-3v-3v-3v-3v-3
v-3v-3v-3v-3v-3v-3v-3v-3v-3v-3v-3v-3v-3v-3v-3v-3v-3v-3v-3v-3v-3v-3v-3v-3v-3v-3v-3v-3v-3v-3v-3v-3v-3v-3v-3v-3v-3v-3v-3v-3v-2v-3v-9l-3 -40c12.667 18.667 25.334 35.667 38.001 51l90 107h221z" />
    <glyph glyph-name="l" unicode="l" horiz-adv-x="315" 
d="M256 712v-712h-198v712h198z" />
    <glyph glyph-name="m" unicode="m" horiz-adv-x="963" 
d="M246 516l-0.000976562 -65.999c37.333 54 91.333 81 162 81s119.334 -27.333 146.001 -82c38.667 54.667 94 82 166 82c58 0 104 -17.333 138 -52s51 -81.334 51 -140.001v-339h-200v291c0 55.333 -21 83 -63 83c-44 0 -66 -29 -66 -87v-287h-197v298
c0 52.667 -20.667 79 -62 79c-44.667 0 -67 -30 -67 -90v-287h-198v516h190z" />
    <glyph glyph-name="n" unicode="n" horiz-adv-x="648" 
d="M245 516l0.000976562 -64.001c42 52 96.667 78 164 78c65.333 0 112.666 -18.667 141.999 -56s44 -86.666 44 -147.999v-326h-199v289c0 54.667 -22.333 82 -67 82c-50.667 0 -76 -29 -76 -87v-284h-198v516h190z" />
    <glyph glyph-name="o" unicode="o" horiz-adv-x="630" 
d="M317 531c83.333 0 151 -25.002 203 -75.002s78 -115.333 78 -196c0 -81.333 -26.333 -147.5 -79 -198.5s-120.667 -76.5 -204 -76.5c-84 0 -152.333 25.333 -205 76s-79 116.334 -79 197.001s26.5 146.334 79.5 197.001s121.833 76 206.5 76zM313 387.998
c-56 0 -84 -43.333 -84 -130c0 -87.333 28.667 -131 86 -131c56.667 0 85 44.333 85 133c0 85.333 -29 128 -87 128z" />
    <glyph glyph-name="p" unicode="p" horiz-adv-x="648" 
d="M245 516v-56.001c35.333 46 84.666 69 147.999 69c67.333 0 121.5 -25.167 162.5 -75.5s61.5 -116.833 61.5 -199.5c0 -81.333 -19.667 -146.166 -59 -194.499s-92 -72.5 -158 -72.5c-57.333 0 -106.666 22.667 -147.999 68v-221h-197v682h190zM332 370.999
c-57.333 0 -86 -39.333 -86 -118c0 -77.333 29 -116 87 -116c57.333 0 86 39 86 117s-29 117 -87 117z" />
    <glyph glyph-name="q" unicode="q" horiz-adv-x="648" 
d="M593 516l0.00195312 -682.001h-196v222c-37.333 -46 -87 -69 -149 -69c-65.333 0 -117.833 24.167 -157.5 72.5s-59.5 112.833 -59.5 193.5c0 82.667 20.667 149.334 62 200.001s95.666 76 162.999 76c61.333 0 110.666 -22.667 147.999 -68v55h189zM314.002 371.999
c-56.667 0 -85 -40.333 -85 -121c0 -76 29 -114 87 -114s87 39 87 117c0 78.667 -29.667 118 -89 118z" />
    <glyph glyph-name="r" unicode="r" horiz-adv-x="444" 
d="M445 521v-173c-28 9.33301 -52.333 14 -73 14c-40 0 -70.5 -11.167 -91.5 -33.5s-31.5 -53.833 -31.5 -94.5v-234h-197v516h189l-1 -80c18.667 32 40 55.667 64 71s54 23 90 23c16 0 33 -3 51 -9z" />
    <glyph glyph-name="s" unicode="s" horiz-adv-x="574" 
d="M533 365l-179 0.00488281c-3.33301 18.667 -10 31.334 -20 38.001s-26.667 10 -50 10c-36 0 -54 -10.333 -54 -31c0 -7.33301 2.83301 -13.833 8.5 -19.5s14.167 -10.334 25.5 -14.001s21 -6.33398 29 -8.00098s18.333 -3.33398 31 -5.00098s19.334 -2.5 20.001 -2.5
c24 -4.66699 43.833 -8.83398 59.5 -12.501s33.5 -9.83398 53.5 -18.501s36 -18.334 48 -29.001s22.167 -25 30.5 -43s12.5 -38.667 12.5 -62c0 -56.667 -23 -101 -69 -133s-109.667 -48 -191 -48c-164.667 0 -252 61.667 -262 185h187
c2.66699 -21.333 10.167 -36.833 22.5 -46.5s31.166 -14.5 56.499 -14.5c19.333 0 34.5 3.66699 45.5 11s16.5 17.333 16.5 30s-5.33301 21.667 -16 27s-31 11.333 -61 18c-10 2 -18 3.66699 -24 5c-68 14.667 -113.333 27.667 -136 39c-53.333 26 -80 68.333 -80 127
c0 52.667 21.5 93 64.5 121s105.167 42 186.5 42c70 0 127 -12.167 171 -36.5s68.667 -67.5 74 -129.5z" />
    <glyph glyph-name="t" unicode="t" horiz-adv-x="407" 
d="M396 516l-0.00195312 -123h-107v-184c0 -28 3.83301 -46.833 11.5 -56.5s25.834 -14.5 54.501 -14.5c18.667 0 32.334 0.666992 41.001 2v-143c-40 -2.66699 -74.667 -4 -104 -4c-72.667 0 -124.167 12.667 -154.5 38s-45.5 69 -45.5 131v231h-85v123h85v159h197v-159
h107z" />
    <glyph glyph-name="u" unicode="u" horiz-adv-x="648" 
d="M594 516v-516.001h-192v66c-34 -54 -86.667 -81 -158 -81c-125.333 0 -188 70.667 -188 212v319h200v-297c0 -46.667 22.333 -70 67 -70c30 0 49.667 9.33301 59 28s14 44.334 14 77.001v262h198z" />
    <glyph glyph-name="v" unicode="v" horiz-adv-x="556" 
d="M564 516l-169.001 -516h-232l-172 516h209l41 -152c18.667 -70 31.667 -133.333 39 -190c4.66699 44.667 17.334 104 38.001 178l46 164h200z" />
    <glyph glyph-name="w" unicode="w" horiz-adv-x="870" 
d="M875 516l-163.001 -515.999h-201l-44 169c-13.333 51.333 -24.333 113 -33 185c-9.33301 -66.667 -20.666 -128.334 -33.999 -185.001l-41 -169h-202l-163 516h205l37 -145c16 -65.333 29 -133.333 39 -204c12 81.333 24.667 152 38 212l30 137h184l34 -151
c14 -62.667 25.667 -128 35 -196c8.66699 64 21 128.333 37 193l38 154h204z" />
    <glyph glyph-name="x" unicode="x" horiz-adv-x="556" 
d="M546 516l-160.998 -243.999l183 -272h-217l-38 62c-10.667 17.333 -22.334 42.333 -35.001 75c-14.667 -34 -27.334 -59.667 -38.001 -77l-35 -60h-218l181 272l-162 244h216l27 -48c14 -26.667 24.333 -47.334 31 -62.001c15.333 34.667 26.333 58 33 70l23 40h210z" />
    <glyph glyph-name="y" unicode="y" horiz-adv-x="556" 
d="M567 516l-189 -527.999c-20.667 -58 -45.834 -98.333 -75.501 -121s-74.834 -34 -135.501 -34h-129v158c14 -0.666992 29.333 -1 46 -1c10.667 0 19.334 0.333008 26.001 1s14.334 2.16699 23.001 4.5s15.334 6.66602 20.001 12.999s7 14.5 7 24.5c0 6.66699 -2 15 -6 25
l-168 458h210l58 -204c9.33301 -33.333 17.666 -73.333 24.999 -120c12 61.333 21.333 103.333 28 126l57 198h203z" />
    <glyph glyph-name="z" unicode="z" horiz-adv-x="556" 
d="M513 516v-150l-146 -135c-19.333 -18 -53 -46.333 -101 -85c36 3.33301 65 5 87 5h182v-151h-514v152l143 127c42 36.667 78.333 67 109 91c-30 -2 -51.333 -3 -64 -3h-166v149h470z" />
    <glyph glyph-name="braceleft" unicode="{" horiz-adv-x="407" 
d="M19 321c36.667 7.33301 64.5 19.333 83.5 36s28.5 42.334 28.5 77.001v87c0 31.333 5 58.333 15 81s22.167 40.5 36.5 53.5s33.833 23.667 58.5 32s47.667 14 69 17s47.666 5.5 78.999 7.5v-88c-64.667 -8.66699 -97 -47 -97 -115v-45c0 -58.667 -11.5 -103 -34.5 -133
s-62.833 -48 -119.5 -54c56 -6 95.667 -24 119 -54s35 -74.333 35 -133v-45c0 -68 32.333 -106.333 97 -115v-88c-45.333 2 -82.833 6.33301 -112.5 13s-56.167 17.5 -79.5 32.5s-40.166 36.167 -50.499 63.5s-15.5 61.666 -15.5 102.999v66c0 64 -37.333 101.667 -112 113
v88z" />
    <glyph glyph-name="bar" unicode="|" horiz-adv-x="222" 
d="M30 -214v1000h162v-1000h-162z" />
    <glyph glyph-name="braceright" unicode="}" horiz-adv-x="407" 
d="M389 233c-74.667 -11.333 -112 -49 -112 -113v-66c0 -41.333 -5.16699 -75.666 -15.5 -102.999s-27.166 -48.5 -50.499 -63.5s-49.833 -25.833 -79.5 -32.5s-67.167 -11 -112.5 -13v88c64.667 8.66699 97 47 97 115v45c0 58.667 11.667 103 35 133s63 48 119 54
c-56.667 6 -96.5 24 -119.5 54s-34.5 74.333 -34.5 133v45c0 68 -32.333 106.333 -97 115v88c31.333 -2 57.666 -4.5 78.999 -7.5s44.333 -8.66699 69 -17s44.167 -19 58.5 -32s26.5 -30.833 36.5 -53.5s15 -49.667 15 -81v-87c0 -34.667 9.5 -60.334 28.5 -77.001
s46.833 -28.667 83.5 -36v-88z" />
    <glyph glyph-name="asciitilde" unicode="~" horiz-adv-x="600" 
d="M97 141h-96.002c19.333 157.333 75 236 167 236c32.667 0 70 -8 112 -24c78.667 -30.667 128.334 -46 149.001 -46c18.667 0 33.834 6.16699 45.501 18.5s21.167 32.833 28.5 61.5h97c-2.66699 -33.333 -9.66699 -66.833 -21 -100.5s-30.166 -64.667 -56.499 -93
s-56.833 -42.5 -91.5 -42.5c-32 0 -79 11.667 -141 35l-25.5 10c-11.667 4.66699 -20.334 8 -26.001 10l-22 7.5c-9 3 -17.333 5 -25 6s-15.167 1.5 -22.5 1.5c-34 0 -58 -26.667 -72 -80z" />
    <glyph glyph-name="sterling" unicode="&#xa3;" 
d="M612 474h-192.001v5c0 56.667 -22.667 85 -68 85c-18 0 -32.667 -5.16699 -44 -15.5s-17 -23.5 -17 -39.5c0 -14 5.5 -32.833 16.5 -56.5s17.167 -37.167 18.5 -40.5h108v-123h-74c2 -12 3 -20.667 3 -26c0 -41.333 -18.333 -77 -55 -107c20.667 8 42.334 12 65.001 12
c12 0 31.333 -2.66699 58 -8c19.333 -4 34 -6 44 -6c36 0 65.333 16.667 88 50l78 -141c-44.667 -50.667 -103.667 -76 -177 -76c-29.333 0 -74 7.33301 -134 22c-35.333 8.66699 -63.666 13 -84.999 13c-36.667 0 -73.667 -13 -111 -39l-76 112
c72.667 48.667 109 98.667 109 150c0 14 -3 28.667 -9 44h-113v123l38 -1l33 -2c-27.333 34 -41 71.667 -41 113c0 60.667 24.667 109.167 74 145.5s114.666 54.5 195.999 54.5c172 0 261 -82.667 267 -248z" />
    <glyph glyph-name="currency" unicode="&#xa4;" 
d="M596 174l-87 -87.999l-67 67c-37.333 -18.667 -73.666 -28 -108.999 -28c-34.667 0 -71.334 9.33301 -110.001 28l-67 -67l-87 88l67 67c-18.667 33.333 -28 69.666 -28 108.999c0 34.667 9.33301 71 28 109l-67 67l87 88l68 -67c43.333 18.667 79 28 107 28
c37.333 0 74 -9.66699 110 -29l67 67l87 -87l-66 -66c19.333 -43.333 29 -80.333 29 -111c0 -36 -9.66699 -72.333 -29 -109zM414 351.001c0 22 -7.83398 40.833 -23.501 56.5s-34.834 23.5 -57.501 23.5c-22 0 -41 -7.83301 -57 -23.5s-24 -34.5 -24 -56.5
c0 -22.667 7.83301 -41.834 23.5 -57.501s34.834 -23.5 57.501 -23.5s41.834 7.83301 57.501 23.5s23.5 34.834 23.5 57.501z" />
    <glyph glyph-name="brokenbar" unicode="&#xa6;" horiz-adv-x="222" 
d="M36 -25v303h150v-303h-150zM36 433v302h150v-302h-150z" />
    <glyph glyph-name="section" unicode="&#xa7;" horiz-adv-x="667" 
d="M580 529h-169.005c-2 38.667 -22.667 58 -62 58c-16.667 0 -29.834 -3.83301 -39.501 -11.5s-14.5 -17.834 -14.5 -30.501c0 -4 0.666992 -7.66699 2 -11s3.33301 -6.66602 6 -9.99902s5.5 -6.33301 8.5 -9s7.33301 -5.5 13 -8.5l15 -8
c4.33301 -2.33301 10.333 -5.16602 18 -8.49902s14.334 -6 20.001 -8s13.334 -5 23.001 -9l24.5 -10c6 -2.66699 17.667 -7.33398 35 -14.001s29.833 -11.667 37.5 -15s18.834 -8.5 33.501 -15.5s25.834 -13.333 33.501 -19s16.667 -13.167 27 -22.5s18 -18.833 23 -28.5
s9.33301 -21.167 13 -34.5s5.5 -27.333 5.5 -42c0 -35.333 -9.16699 -65.666 -27.5 -90.999s-43.833 -43.333 -76.5 -54c34.667 -30.667 52 -68 52 -112c0 -59.333 -22.5 -106.666 -67.5 -141.999s-104.833 -53 -179.5 -53c-68.667 0 -126.667 16.5 -174 49.5
s-71 82.5 -71 148.5v14h169c2.66699 -42.667 27.334 -64 74.001 -64c18.667 0 33.5 4.16699 44.5 12.5s16.5 19.833 16.5 34.5c0 6 -0.833008 11.333 -2.5 16s-4.66699 9.16699 -9 13.5s-8.66602 8 -12.999 11s-10.666 6.33301 -18.999 10l-21 9l-26 10.5
c-11.667 4.66699 -21.167 8.33398 -28.5 11.001l-38.5 15l-42 16c-9 3.33301 -21.833 9 -38.5 17s-29.5 15.167 -38.5 21.5s-19.5 14.666 -31.5 24.999s-21 20.666 -27 30.999s-11.167 22.666 -15.5 36.999s-6.5 29.5 -6.5 45.5c0 35.333 10 65.5 30 90.5s47 43.833 81 56.5
c-26.667 28.667 -40 61.667 -40 99c0 52 22.5 94.667 67.5 128s102.167 50 171.5 50c68 0 123.667 -18.333 167 -55s65.666 -84.667 66.999 -144zM240.995 361c-10.667 0 -19.333 -3.33398 -26 -10.001s-10 -15.334 -10 -26.001c0 -4.66699 0.5 -8.66699 1.5 -12
s3.16699 -6.66602 6.5 -9.99902l8 -8c2 -2 6 -4.5 12 -7.5s10.5 -5.16699 13.5 -6.5s8.66699 -3.66602 17 -6.99902l17.5 -7l107 -45c20.667 -9.33301 35 -14 43 -14c9.33301 0 17.666 3.16699 24.999 9.5s11 14.833 11 25.5c0 5.33301 -1.33301 10.333 -4 15
s-5.5 8.5 -8.5 11.5s-7.5 6.33301 -13.5 10s-10.667 6.16699 -14 7.5l-16 6.5c-7.33301 3 -11.666 4.83301 -12.999 5.5l-108 46c-24.667 10.667 -41 16 -49 16z" />
    <glyph glyph-name="copyright" unicode="&#xa9;" horiz-adv-x="800" 
d="M768 357c0 -103.333 -36.5 -191.5 -109.5 -264.5s-161.167 -109.5 -264.5 -109.5s-191.666 36.5 -264.999 109.5s-110 161.167 -110 264.5s36.5 191.5 109.5 264.5s161.167 109.5 264.5 109.5s191.666 -36.5 264.999 -109.5s110 -161.167 110 -264.5zM683 357
c0 80 -28.333 148.167 -85 204.5s-125 84.5 -205 84.5s-148.167 -28.167 -204.5 -84.5s-84.5 -124.5 -84.5 -204.5s28.167 -148.167 84.5 -204.5s124.5 -84.5 204.5 -84.5s148.333 28.167 205 84.5s85 124.5 85 204.5zM401 137c-60 0 -109.499 21 -148.499 63
s-58.5 94.333 -58.5 157c0 65.333 18.5 118.833 55.5 160.5s85.167 62.5 144.5 62.5c51.333 0 94.5 -15.667 129.5 -47s54.5 -73.333 58.5 -126h-105c-8 50.667 -34 76 -78 76c-24 0 -43.5 -10.833 -58.5 -32.5s-22.5 -52.167 -22.5 -91.5c0 -40 7.66699 -70.833 23 -92.5
s36.666 -32.5 63.999 -32.5c22 0 38.333 5.66699 49 17s18.667 30 24 56h105c-6 -52 -25.667 -93.333 -59 -124s-74.333 -46 -123 -46z" />
    <glyph glyph-name="guillemotleft" unicode="&#xab;" horiz-adv-x="444" 
d="M400 482v-154l-76 -62l76 -61v-157l-160 127v180zM204 481v-151l-77 -62l77 -64v-155l-160 128v178z" />
    <glyph glyph-name="logicalnot" unicode="&#xac;" horiz-adv-x="600" 
d="M28 301v153h538v-392h-150v239h-388z" />
    <glyph glyph-name="registered" unicode="&#xae;" horiz-adv-x="400" 
d="M199 731c50.667 0 94 -17.999 130 -53.999s54 -79.333 54 -130s-18.167 -93.834 -54.5 -129.501s-79.5 -53.5 -129.5 -53.5c-50.667 0 -94 18 -130 54s-54 79 -54 129c0 51.333 18 94.833 54 130.5s79.333 53.5 130 53.5zM199 692.001
c-40 0 -74.167 -14.332 -102.5 -42.999s-42.5 -62.667 -42.5 -102c0 -40 14.167 -74 42.5 -102s62.5 -42 102.5 -42s74.167 14.167 102.5 42.5s42.5 62.166 42.5 101.499c0 40 -14.167 74.167 -42.5 102.5s-62.5 42.5 -102.5 42.5zM118 650.002h97
c22 0 39.667 -5.33301 53 -16s20 -26 20 -46c0 -24.667 -12 -41 -36 -49c13.333 -6.66699 21.833 -14 25.5 -22s6.16699 -20.333 7.5 -37l1 -12c2 -14 3.33301 -22 4 -24h-58c-2.66699 8 -4 17.333 -4 28c0 18 -2.33301 29.667 -7 35s-15 8 -31 8h-11v-71h-61v206z
M179 560.002h13c23.333 0 35 8 35 24c0 14.667 -11.333 22 -34 22h-14v-46z" />
    <glyph glyph-name="degree" unicode="&#xb0;" horiz-adv-x="400" 
d="M201 699c47.333 0 88 -16.833 122 -50.5s51 -74.167 51 -121.5c0 -48 -17 -88.833 -51 -122.5s-74.667 -50.5 -122 -50.5s-88 16.833 -122 50.5s-51 74.5 -51 122.5c0 47.333 17 87.833 51 121.5s74.667 50.5 122 50.5zM146 527c0 -15.333 5.5 -28.5 16.5 -39.5
s23.833 -16.5 38.5 -16.5s27.5 5.5 38.5 16.5s16.5 24.167 16.5 39.5s-5.33301 28.333 -16 39s-23.667 16 -39 16s-28.333 -5.33301 -39 -16s-16 -23.667 -16 -39z" />
    <glyph glyph-name="plusminus" unicode="&#xb1;" horiz-adv-x="600" 
d="M215 188v117h-184v156h184v111h170v-111h184v-155h-184v-118h-170zM30 0v158h538v-158h-538z" />
    <glyph glyph-name="mu" unicode="&#xb5;" horiz-adv-x="648" 
d="M595 516v-516h-192v55c-20 -46.667 -48.667 -70 -86 -70c-27.333 0 -48.333 11 -63 33l3 -185h-200v683h200v-279c0 -31.333 5.33301 -54 16 -68s28 -21 52 -21c47.333 0 71 31 71 93v275h199z" />
    <glyph glyph-name="paragraph" unicode="&#xb6;" horiz-adv-x="620" 
d="M597 616l-53 -0.000976562v-782h-126v782h-91v-782h-126v400c-61.333 1.33301 -110.5 22.833 -147.5 64.5s-55.5 95.834 -55.5 162.501c0 79.333 24.5 141 73.5 185s112.5 66 190.5 66h335v-96z" />
    <glyph glyph-name="periodcentered" unicode="&#xb7;" horiz-adv-x="334" 
d="M270 387v-205h-206v205h206z" />
    <glyph glyph-name="guillemotright" unicode="&#xbb;" horiz-adv-x="444" 
d="M240 484l161 -129v-179l-161 -128v153l79 62l-79 65v156zM44 482l160 -127v-177l-160 -127v149l78 64l-78 62v156z" />
    <glyph glyph-name="divide" unicode="&#xf7;" horiz-adv-x="600" 
d="M21 345h558v-167h-558v167zM387 549v-168h-176v168h176zM387 142v-168h-176v168h176z" />
    <glyph glyph-name="florin" unicode="&#x192;" 
d="M530 412l-21 -120.001h-96l-48 -269c-14 -79.333 -38.667 -132.333 -74 -159s-94.666 -40 -177.999 -40c-16 0 -41 1 -75 3l23 138c7.33301 -0.666992 15 -1 23 -1c28 0 46 2.66699 54 8s14 19 18 41l52 279h-92l20 120h94l21 114c14 76.667 38.333 128.667 73 156
s89.667 41 165 41c40.667 0 71.334 -0.666992 92.001 -2l-24 -139c-9.33301 0.666992 -21.333 1 -36 1c-13.333 0 -23.833 -1 -31.5 -3s-13.834 -6.66699 -18.501 -14s-7.66699 -13.166 -9 -17.499s-3.33301 -13.833 -6 -28.5c-0.666992 -4.66699 -1.33398 -8 -2.00098 -10
l-17 -98h93z" />
    <glyph glyph-name="afii10023" unicode="&#x401;" horiz-adv-x="704" 
d="M649 712v-173h-375v-89h340v-165h-340v-104h385v-181h-600v712h590zM556 907v-138h-175v138h175zM327 907v-138h-176v138h176z" />
    <glyph glyph-name="afii10051" unicode="&#x402;" horiz-adv-x="857" 
d="M505 66h25.002c30 0 52.333 11.333 67 34s22 48.667 22 78c0 31.333 -7.83301 57.166 -23.5 77.499s-39.167 30.5 -70.5 30.5c-32 0 -56.167 -10.667 -72.5 -32s-24.5 -50.666 -24.5 -87.999v-166h-223v529h-181v183h624v-183h-220v-143c14 16.667 34.667 31.667 62 45
s55.666 20 84.999 20c79.333 0 142 -24.333 188 -73s69 -112 69 -190c0 -82 -23.833 -150.333 -71.5 -205s-117.834 -82 -210.501 -82h-45v165z" />
    <glyph glyph-name="afii10052" unicode="&#x403;" horiz-adv-x="611" 
d="M499 911l-178 -145h-131l98 145h211zM282 529v-529h-219v712h535v-183h-316z" />
    <glyph glyph-name="afii10053" unicode="&#x404;" horiz-adv-x="759" 
d="M727 276c-7.33301 -93.333 -41.666 -165.499 -102.999 -216.499s-137 -76.5 -227 -76.5c-107.333 0 -193.666 35.667 -258.999 107s-98 160.666 -98 267.999c0 106 33.5 194.5 100.5 265.5s153.833 106.5 260.5 106.5c85.333 0 158.666 -26 219.999 -78
s95.333 -117.333 102 -196h-212c-14.667 62 -52.667 93 -114 93c-62.667 0 -104.334 -35.333 -125.001 -106h189v-158h-193c8.66699 -37.333 24.167 -66.333 46.5 -87s49.833 -31 82.5 -31c64 0 102 36.333 114 109h216z" />
    <glyph glyph-name="afii10054" unicode="&#x405;" horiz-adv-x="667" 
d="M617 496l-204.997 -0.00195312c-0.666992 21.333 -9 38 -25 50s-38 18 -66 18c-48 0 -72 -14.667 -72 -44c0 -8 4 -15.667 12 -23s19.167 -13.5 33.5 -18.5s27.5 -9.16699 39.5 -12.5s25.5 -6.5 40.5 -9.5s23.833 -4.83301 26.5 -5.5c28 -7.33301 52 -14.333 72 -21
s41.667 -16.167 65 -28.5s42.166 -26 56.499 -41s26.5 -34 36.5 -57s15 -48.833 15 -77.5c0 -74 -28 -132.833 -84 -176.5s-131.667 -65.5 -227 -65.5c-99.333 0 -177.666 22.833 -234.999 68.5s-86.666 108.167 -87.999 187.5h219c3.33301 -61.333 40.333 -92 111 -92
c27.333 0 49 5.33301 65 16s24 25 24 43c0 11.333 -4.66699 21 -14 29c-8.66699 7.33301 -25.334 15.333 -50.001 24s-53.834 17.834 -87.501 27.501s-54.834 16.167 -63.501 19.5c-28.667 10 -52.334 19.667 -71.001 29s-36.667 21.5 -54 36.5s-30.166 33.333 -38.499 55
s-12.5 47.167 -12.5 76.5c0 66.667 26.5 120.5 79.5 161.5s122.5 61.5 208.5 61.5c90.667 0 161.167 -20.167 211.5 -60.5s76.166 -97.166 77.499 -170.499z" />
    <glyph glyph-name="afii10055" unicode="&#x406;" horiz-adv-x="333" 
d="M276 712v-712h-218v712h218z" />
    <glyph glyph-name="afii10056" unicode="&#x407;" horiz-adv-x="333" 
d="M276 712v-712h-218v712h218zM369 907v-138h-175v138h175zM140 907v-138h-176v138h176z" />
    <glyph glyph-name="afii10057" unicode="&#x408;" horiz-adv-x="611" 
d="M559 712v-474.002c0 -83.333 -22.833 -146.666 -68.5 -189.999s-110.834 -65 -195.501 -65c-85.333 0 -150.5 23 -195.5 69s-67.5 110.667 -67.5 194v53h196v-21v-18.5v-20.5c0 -3.33301 0.333008 -9.66602 1 -18.999s1.83398 -16 3.50098 -20l6.5 -16
c2.66699 -6.66699 6.16699 -11.5 10.5 -14.5s9.66602 -5.66699 15.999 -8s13.5 -3.5 21.5 -3.5c18.667 0 32.334 5.5 41.001 16.5s13 28.833 13 53.5v484h218z" />
    <glyph glyph-name="afii10058" unicode="&#x409;" horiz-adv-x="1100" 
d="M1074 250c0 -78.667 -25 -139.999 -75 -183.999s-123 -66 -219 -66h-306v529h-128v-14c0 -118.667 -2 -197 -6 -235c-15.333 -158 -70.333 -252 -165 -282c-24 -7.33301 -50.333 -11 -79 -11c-32.667 0 -62 5.33301 -88 16v169c10.667 -7.33301 25 -11 43 -11
c12 0 22.5 3.16699 31.5 9.5s16.333 16 22 29s10.167 26.333 13.5 40s5.83301 31.167 7.5 52.5s2.66699 39.666 3 54.999s0.5 35 0.5 59v306h563v-241h101c94.667 0 165.167 -19.167 211.5 -57.5s69.5 -92.833 69.5 -163.5zM862 241.001c0 46.667 -29.667 70 -89 70h-81
v-148h80c60 0 90 26 90 78z" />
    <glyph glyph-name="afii10059" unicode="&#x40a;" horiz-adv-x="1100" 
d="M1074 250c0 -78.667 -25 -140 -75 -184s-123 -66 -219 -66h-306v285h-197v-285h-219v712h219v-241h197v241h218v-241h101c94.667 0 165.167 -19.167 211.5 -57.5s69.5 -92.833 69.5 -163.5zM862 240c0 46.667 -29.667 70 -89 70h-81v-148h80c60 0 90 26 90 78z" />
    <glyph glyph-name="afii10060" unicode="&#x40b;" horiz-adv-x="857" 
d="M428 0l-223.001 -0.000976562v529h-181v183h624v-183h-220v-93c8 3.33301 24.667 6.66602 50 9.99902s44.333 5 57 5c34 0 64 -1.66699 90 -5s53.333 -10.833 82 -22.5s52.334 -27.167 71.001 -46.5s34.167 -46.166 46.5 -80.499s18.5 -75.166 18.5 -122.499v-174h-224
v158c0 85.333 -34.667 128 -104 128c-29.333 0 -58.333 -5 -87 -15v-271z" />
    <glyph glyph-name="afii10061" unicode="&#x40c;" horiz-adv-x="778" 
d="M747 712l-258 -277l299 -435h-273l-174 277l-64 -67v-210h-215v712h216l-1 -144c0 -10.667 -1 -47 -3 -109l203 253h270zM559 911l-178 -145h-131l98 145h211z" />
    <glyph glyph-name="afii10062" unicode="&#x40e;" horiz-adv-x="667" 
d="M211 245l-228 467h239l77 -208c15.333 -41.333 27 -82.333 35 -123c10 50 21 91 33 123l77 208h239l-271 -582c-20 -43.333 -48.5 -78.833 -85.5 -106.5s-72.833 -41.5 -107.5 -41.5c-21.333 0 -47.833 2.5 -79.5 7.5s-51.5 10.167 -59.5 15.5v171
c4.66699 -4 15.5 -8.5 32.5 -13.5s33.167 -7.5 48.5 -7.5c16 0 30 4.5 42 13.5s18 21.833 18 38.5c0 11.333 -3.33301 24 -10 38zM144 907h108.001c4 -25.333 13.5 -42.333 28.5 -51s34.167 -13 57.5 -13c24.667 0 43 4.83301 55 14.5s20.333 26.167 25 49.5h105
c-2 -55.333 -20 -97.333 -54 -126s-78.667 -43 -134 -43c-59.333 0 -104.833 13.333 -136.5 40s-49.834 69.667 -54.501 129z" />
    <glyph glyph-name="afii10145" unicode="&#x40f;" horiz-adv-x="759" 
d="M482 0v-166h-203v166h-221v712h219v-526h206v526h218v-712h-219z" />
    <glyph glyph-name="afii10017" unicode="&#x410;" horiz-adv-x="722" 
d="M469 712l262 -712h-221l-35 101h-229l-35 -101h-221l263 712h216zM427 254l-38 122c-8.66699 28.667 -17.667 64.667 -27 108c-10.667 -42.667 -20.667 -79 -30 -109c-10 -32.667 -23 -73 -39 -121h134z" />
    <glyph glyph-name="afii10018" unicode="&#x411;" horiz-adv-x="741" 
d="M378 297h-107v-131h123c30.667 0 54.667 4.5 72 13.5s26 26.5 26 52.5c0 27.333 -9 45 -27 53s-47 12 -87 12zM271 545v-94.001h160c25.333 0 49.833 -1.83301 73.5 -5.5s48 -10.667 73 -21s46.5 -23.333 64.5 -39s32.833 -36.5 44.5 -62.5s17.5 -55.667 17.5 -89
c0 -85.333 -25.667 -145.666 -77 -180.999s-127.333 -53 -228 -53h-340v712h589v-167h-377z" />
    <glyph glyph-name="afii10019" unicode="&#x412;" horiz-adv-x="741" 
d="M59 712h359.001c168.667 0 253 -59.333 253 -178c0 -60 -29.667 -107.667 -89 -143c82.667 -28.667 124 -87 124 -175c0 -40 -7.5 -74.5 -22.5 -103.5s-35.833 -51.5 -62.5 -67.5s-55.334 -27.5 -86.001 -34.5s-64.667 -10.5 -102 -10.5h-374v712zM271.001 550
l-0.000976562 -110.001h123c20.667 0 36.834 4.83301 48.501 14.5s17.5 22.834 17.5 39.501c0 37.333 -25.333 56 -76 56h-113zM271 302.999v-134h135c55.333 0 83 22 83 66c0 45.333 -27.667 68 -83 68h-135z" />
    <glyph glyph-name="afii10020" unicode="&#x413;" horiz-adv-x="611" 
d="M282 529v-529h-219v712h535v-183h-316z" />
    <glyph glyph-name="afii10021" unicode="&#x414;" horiz-adv-x="804" 
d="M161 712l546 0.000976562v-530h88v-348h-198v166h-395v-166h-199v348h73c27.333 51.333 48.333 118.666 63 201.999s22 171.333 22 264v64zM493 182.001v351h-135v-60c0 -41.333 -7 -92.833 -21 -154.5s-28.667 -107.167 -44 -136.5h200z" />
    <glyph glyph-name="afii10022" unicode="&#x415;" horiz-adv-x="704" 
d="M649 712v-173h-375v-89h340v-165h-340v-104h385v-181h-600v712h590z" />
    <glyph glyph-name="afii10024" unicode="&#x416;" horiz-adv-x="1137" 
d="M461 218l-51 61l-135 -279h-266l250 452l-223 260h251l174 -227v227h218v-227l174 227h251l-223 -260l249 -452h-266l-135 279l-50 -61v-218h-218v218z" />
    <glyph glyph-name="afii10025" unicode="&#x417;" horiz-adv-x="676" 
d="M651 225c0 -81.333 -30.001 -141.832 -90.001 -181.499s-135.333 -59.5 -226 -59.5c-99.333 0 -177.666 22.833 -234.999 68.5s-86.666 108.167 -87.999 187.5h219c3.33301 -60 36.666 -90 99.999 -90c33.333 0 59.166 7.5 77.499 22.5s27.5 35.167 27.5 60.5
c0 16 -3.16699 29 -9.5 39s-15.666 17.167 -27.999 21.5s-24 7.16602 -35 8.49902s-24.833 2 -41.5 2c-5.33301 0 -13 -0.166992 -23 -0.5s-17.667 -0.5 -23 -0.5v136c5.33301 -0.666992 17 -1 35 -1h32.5c5.66699 0 15.667 1.16699 30 3.5s24.833 5.5 31.5 9.5
s13 10.5 19 19.5s9 20.167 9 33.5c0 20 -8.5 36 -25.5 48s-39.833 18 -68.5 18s-52.167 -6.33301 -70.5 -19s-27.833 -29.667 -28.5 -51h-205c0.666992 72.667 28.667 129.334 84 170.001s130 61 224 61c87.333 0 156.833 -17 208.5 -51s77.5 -83.333 77.5 -148
c0 -30.667 -10 -60.334 -30 -89.001s-45 -47.667 -75 -57c34.667 -8 64.5 -26.833 89.5 -56.5s37.5 -64.5 37.5 -104.5z" />
    <glyph glyph-name="afii10026" unicode="&#x418;" horiz-adv-x="759" 
d="M701 712v-712h-208v268c0 74.667 2 133 6 175l-207 -443h-234v712h209v-270c0 -54 -1.66699 -110.333 -5 -169l206 439h233z" />
    <glyph glyph-name="afii10027" unicode="&#x419;" horiz-adv-x="759" 
d="M189 907h108.001c4 -25.333 13.5 -42.333 28.5 -51s34.167 -13 57.5 -13c24.667 0 43 4.83301 55 14.5s20.333 26.167 25 49.5h105c-2 -55.333 -20 -97.333 -54 -126s-78.667 -43 -134 -43c-59.333 0 -104.833 13.333 -136.5 40s-49.834 69.667 -54.501 129zM701.001 712
v-712h-208v268c0 74.667 2 133 6 175l-207 -443h-234v712h209v-270c0 -54 -1.66699 -110.333 -5 -169l206 439h233z" />
    <glyph glyph-name="afii10028" unicode="&#x41a;" horiz-adv-x="778" 
d="M747 712l-258 -277l299 -435h-273l-174 277l-64 -67v-210h-215v712h216l-1 -144c0 -10.667 -1 -47 -3 -109l203 253h270z" />
    <glyph glyph-name="afii10029" unicode="&#x41b;" horiz-adv-x="779" 
d="M144 712h563.001v-712h-217v529h-131v-42c0 -128.667 -5.66699 -221.667 -17 -279c-35.333 -144 -112.333 -217.667 -231 -221c-32 0 -61 5.33301 -87 16v169c10.667 -7.33301 25 -11 43 -11c12 0 22.5 3.16699 31.5 9.5s16.167 16 21.5 29s9.66602 26.333 12.999 40
s5.83301 31 7.5 52s2.66699 39.333 3 55s0.5 35.5 0.5 59.5v306z" />
    <glyph glyph-name="afii10030" unicode="&#x41c;" horiz-adv-x="944" 
d="M885 712l-0.000976562 -712h-205v107c0 126 2.66699 261 8 405l-134 -512h-163l-135 512c4.66699 -108 7.33398 -233 8.00098 -375l1 -137h-205v712h313l46 -185c24 -99.333 42.333 -189.333 55 -270c10 57.333 30 149 60 275l44 180h307z" />
    <glyph glyph-name="afii10031" unicode="&#x41d;" horiz-adv-x="759" 
d="M701 712v-712h-218v281h-206v-281h-219v712h219v-239h206v239h218z" />
    <glyph glyph-name="afii10032" unicode="&#x41e;" horiz-adv-x="796" 
d="M403 731c106.667 0 192.666 -34.5 257.999 -103.5s98 -159.5 98 -271.5c0 -111.333 -32.833 -201.333 -98.5 -270s-152.167 -103 -259.5 -103c-109.333 0 -197.333 34.167 -264 102.5s-100 158.833 -100 271.5s33.333 203.167 100 271.5s155.334 102.5 266.001 102.5z
M399.999 556c-44 0 -78.501 -17.333 -103.501 -52s-37.5 -82.667 -37.5 -144c0 -63.333 12.333 -112.5 37 -147.5s59.667 -52.5 105 -52.5c44.667 0 78.667 17.5 102 52.5s35 86.167 35 153.5c0 59.333 -12.167 105.833 -36.5 139.5s-58.166 50.5 -101.499 50.5z" />
    <glyph glyph-name="afii10033" unicode="&#x41f;" horiz-adv-x="759" 
d="M701 712v-712h-218v529h-206v-529h-219v712h643z" />
    <glyph glyph-name="afii10034" unicode="&#x420;" horiz-adv-x="704" 
d="M58 712h310c207.333 0 311 -84.333 311 -253c0 -78.667 -24.5 -138.167 -73.5 -178.5s-113.833 -60.5 -194.5 -60.5h-136v-220h-217v712zM275 537v-151h105c60 0 90 25 90 75c0 50.667 -31.333 76 -94 76h-101z" />
    <glyph glyph-name="afii10035" unicode="&#x421;" horiz-adv-x="759" 
d="M727 281c-6 -94.667 -39.833 -168 -101.5 -220s-137.834 -78 -228.501 -78c-107.333 0 -193.666 35.667 -258.999 107s-98 160.666 -98 267.999c0 106 33.5 194.5 100.5 265.5s153.833 106.5 260.5 106.5c86.667 0 160.834 -26.833 222.501 -80.5
s95.167 -120.5 100.5 -200.5h-212c-6 32 -19 56.667 -39 74s-45.333 26 -76 26c-32 0 -58.833 -10.167 -80.5 -30.5s-36.5 -44.166 -44.5 -71.499s-12 -57 -12 -89c0 -59.333 12.167 -106 36.5 -140s57.833 -51 100.5 -51c65.333 0 103.666 38 114.999 114h215z" />
    <glyph glyph-name="afii10036" unicode="&#x422;" 
d="M642 712v-183h-200v-529h-218v529h-199v183h617z" />
    <glyph glyph-name="afii10037" unicode="&#x423;" horiz-adv-x="667" 
d="M211 245l-228 467h239l77 -208c15.333 -41.333 27 -82.333 35 -123c10 50 21 91 33 123l77 208h239l-271 -582c-20 -43.333 -48.5 -78.833 -85.5 -106.5s-72.833 -41.5 -107.5 -41.5c-21.333 0 -47.833 2.5 -79.5 7.5s-51.5 10.167 -59.5 15.5v171
c4.66699 -4 15.5 -8.5 32.5 -13.5s33.167 -7.5 48.5 -7.5c16 0 30 4.5 42 13.5s18 21.833 18 38.5c0 11.333 -3.33301 24 -10 38z" />
    <glyph glyph-name="afii10038" unicode="&#x424;" horiz-adv-x="937" 
d="M900 361c0 -86.667 -28.333 -157.001 -85 -211.001s-136 -81 -238 -81v-69h-214v69c-98.667 0 -177.667 27.167 -237 81.5s-89 123.833 -89 208.5c0 34.667 6.16699 68.167 18.5 100.5s31 62.333 56 90s59.167 49.834 102.5 66.501s93 25 149 25v71h214v-71
c100 0 178.833 -26.667 236.5 -80s86.5 -120 86.5 -200zM682 358.999c0 32 -8.49902 61.3311 -25.499 87.998s-45.167 40 -84.5 40v-262c22 0 40.667 4.5 56 13.5s26.666 20.833 33.999 35.5s12.5 28.834 15.5 42.501s4.5 27.834 4.5 42.501zM368.001 223.997v263.001
c-39.333 0 -68 -13.167 -86 -39.5s-27 -55.833 -27 -88.5c0 -36.667 9 -68.334 27 -95.001s46.667 -40 86 -40z" />
    <glyph glyph-name="afii10039" unicode="&#x425;" horiz-adv-x="741" 
d="M725 712l-227 -334l255 -378h-264l-69 116c-18.667 31.333 -36 65.333 -52 102c-22 -44.667 -41 -79.667 -57 -105l-68 -113h-253l259 378l-235 334h256l54 -94c17.333 -29.333 35 -64.333 53 -105c18 38 33.667 69.333 47 94l58 105h243z" />
    <glyph glyph-name="afii10040" unicode="&#x426;" horiz-adv-x="778" 
d="M684 712v-526h88v-352h-203v166h-518v712h219v-526h196v526h218z" />
    <glyph glyph-name="afii10041" unicode="&#x427;" horiz-adv-x="722" 
d="M338 258c-104.667 0 -179.667 21.999 -225 65.999s-68 115 -68 213v175h217v-145c0 -47.333 6.66699 -82.333 20 -105s39 -34 77 -34c14.667 0 31.834 1.83301 51.501 5.5s32.5 6.83398 38.5 9.50098v269h217v-712h-217v275c-6 -2.66699 -23.333 -6.16699 -52 -10.5
s-48.334 -6.5 -59.001 -6.5z" />
    <glyph glyph-name="afii10042" unicode="&#x428;" horiz-adv-x="1095" 
d="M58 0v712h214v-527h168v527h215v-527h168v527h214v-712h-979z" />
    <glyph glyph-name="afii10043" unicode="&#x429;" horiz-adv-x="1129" 
d="M1119 -166h-203v166h-864v712h214v-527h168v527h215v-527h168v527h214v-526h88v-352z" />
    <glyph glyph-name="afii10044" unicode="&#x42a;" horiz-adv-x="840" 
d="M198 529l-183 0.000976562v183h401v-222h121c94.667 0 165.167 -20.833 211.5 -62.5s69.5 -100.834 69.5 -177.501c0 -78.667 -25 -140 -75 -184s-123 -66 -219 -66h-326v529zM606 248.001c0 53.333 -29.667 80 -89 80h-101v-158h100c60 0 90 26 90 78z" />
    <glyph glyph-name="afii10045" unicode="&#x42b;" horiz-adv-x="1011" 
d="M276 712v-221.999h91c94.667 0 165.167 -20.833 211.5 -62.5s69.5 -100.834 69.5 -177.501c0 -78.667 -25 -140 -75 -184s-123 -66 -219 -66h-296v712h218zM276 328.001v-158h70c60 0 90 26 90 78c0 53.333 -29.667 80 -89 80h-71zM953 712.001v-712h-218v712h218z" />
    <glyph glyph-name="afii10046" unicode="&#x42c;" horiz-adv-x="704" 
d="M276 712v-221.999h121c94.667 0 165.167 -20.833 211.5 -62.5s69.5 -100.834 69.5 -177.501c0 -78.667 -25 -140 -75 -184s-123 -66 -219 -66h-326v712h218zM276 328.001v-158h100c60 0 90 26 90 78c0 53.333 -29.667 80 -89 80h-101z" />
    <glyph glyph-name="afii10047" unicode="&#x42d;" horiz-adv-x="759" 
d="M719 358c0 -107.333 -32.668 -196.667 -98.001 -268s-151.666 -107 -258.999 -107c-90 0 -165.667 25.5 -227 76.5s-95.666 123.167 -102.999 216.5h216c12 -72.667 50 -109 114 -109c32.667 0 60.167 10.333 82.5 31s37.833 49.667 46.5 87h-193v158h189
c-20.667 70.667 -62.334 106 -125.001 106c-60 0 -97.667 -28 -113 -84h-212c9.33301 77.333 43.833 140.833 103.5 190.5s132.167 74.5 217.5 74.5c106.667 0 193.5 -35.5 260.5 -106.5s100.5 -159.5 100.5 -265.5z" />
    <glyph glyph-name="afii10048" unicode="&#x42e;" horiz-adv-x="1094" 
d="M384 283h-107v-283h-219v712h219v-246h114c18.667 82 57.334 146.667 116.001 194s130.667 71 216 71c100 0 180.667 -34.5 242 -103.5s92 -159.5 92 -271.5c0 -111.333 -30.833 -201.333 -92.5 -270s-142.834 -103 -243.501 -103c-90 0 -165.333 27 -226 81
s-97.667 127 -111 219zM835 366c0 59.333 -10.168 105.833 -30.501 139.5s-48.5 50.5 -84.5 50.5c-36.667 0 -65.5 -17.5 -86.5 -52.5s-31.5 -82.833 -31.5 -143.5c0 -63.333 10.5 -112.5 31.5 -147.5s50.167 -52.5 87.5 -52.5c36.667 0 64.834 17.5 84.501 52.5
s29.5 86.167 29.5 153.5z" />
    <glyph glyph-name="afii10049" unicode="&#x42f;" horiz-adv-x="741" 
d="M683 0l-214 -0.00195312v258h-59l-148 -258h-266l204 300c-39.333 14.667 -71.833 39.834 -97.5 75.501s-38.5 74.834 -38.5 117.501c0 146 97.667 219 293 219h326v-712zM469 412.998v134h-111c-55.333 0 -83 -22.667 -83 -68c0 -44 27.667 -66 83 -66h111z" />
    <glyph glyph-name="afii10065" unicode="&#x430;" horiz-adv-x="611" 
d="M583 0h-200c-4.66699 17.333 -7.33398 33.333 -8.00098 48c-43.333 -43.333 -98.333 -65 -165 -65c-58.667 0 -104.5 14.333 -137.5 43s-49.5 68.334 -49.5 119.001c0 26 5.33301 48.667 16 68s21.5 34.166 32.5 44.499s29.833 19.666 56.5 27.999s45.667 13.5 57 15.5
s33.333 5.33301 66 10c5.33301 0.666992 9.33301 1.33398 12 2.00098c3.33301 0.666992 11.333 1.5 24 2.5s22.5 2.16699 29.5 3.5s15.333 3.66602 25 6.99902s16.834 8.33301 21.501 15s7 14.667 7 24c0 30 -21.667 45 -65 45c-24 0 -41.333 -3.66699 -52 -11
s-17.667 -21 -21 -41h-185c4.66699 115.333 90.667 173 258 173c132.667 0 214 -32 244 -96c9.33301 -19.333 14 -50.666 14 -93.999c0 -20.667 -0.333008 -51.167 -1 -91.5s-1 -74.5 -1 -102.5c0 -68.667 7.33301 -117.667 22 -147zM371 235
c-14.667 -10 -45.333 -20 -92 -30c-36 -8 -54 -26 -54 -54c0 -16 5 -28.667 15 -38s23.667 -14 41 -14c36 0 62 13.333 78 40c8 13.333 12 35 12 65v31z" />
    <glyph glyph-name="afii10066" unicode="&#x431;" horiz-adv-x="630" 
d="M594 253c0 -79.333 -25.668 -143.832 -77.001 -193.499s-117.666 -74.5 -198.999 -74.5c-90 0 -160 29.333 -210 88c-44 50.667 -66 138.334 -66 263.001c0 90.667 14 165.5 42 224.5s75.667 101.167 143 126.5c20.667 8 44 13.833 70 17.5s47.333 7.66699 64 12
s30 12.166 40 23.499h182c-1.33301 -28 -7.5 -52.5 -18.5 -73.5s-21.833 -37 -32.5 -48s-30.167 -21.333 -58.5 -31s-48.666 -15.834 -60.999 -18.501s-37.166 -7 -74.499 -13c-10 -2 -17.333 -3.33301 -22 -4c-90.667 -15.333 -141.334 -59.333 -152.001 -132h3
c35.333 64 99.666 96 192.999 96c66 0 121.5 -24.5 166.5 -73.5s67.5 -112.167 67.5 -189.5zM395.999 253.001c0 80.667 -26.667 121 -80 121c-51.333 0 -77 -41 -77 -123c0 -82.667 26.333 -124 79 -124c52 0 78 42 78 126z" />
    <glyph glyph-name="afii10067" unicode="&#x432;" horiz-adv-x="619" 
d="M237 406v-86h77c38 0 57 15 57 45c0 27.333 -18 41 -54 41h-80zM374 0h-329.001v516h314c72.667 0 125.834 -10.167 159.501 -30.5s50.5 -52.833 50.5 -97.5c0 -52 -25 -88.333 -75 -109v-2c26.667 -5.33301 49.167 -19 67.5 -41s27.5 -47.667 27.5 -77
c0 -106 -71.667 -159 -215 -159zM321.999 113c16.667 0 30.5 4.66699 41.5 14s16.5 22.333 16.5 39c0 32.667 -22.333 49 -67 49h-76v-102h85z" />
    <glyph glyph-name="afii10068" unicode="&#x433;" horiz-adv-x="500" 
d="M59 516h430v-149h-233v-367h-197v516z" />
    <glyph glyph-name="afii10069" unicode="&#x434;" horiz-adv-x="648" 
d="M641 -137h-177v137h-286v-137h-174v286h57c45.333 64.667 68 187 68 367h454v-367h58v-286zM388 149v224.001h-89v-6c0 -30.667 -3.83301 -68.834 -11.5 -114.501s-19.5 -80.167 -35.5 -103.5h136z" />
    <glyph glyph-name="afii10070" unicode="&#x435;" horiz-adv-x="630" 
d="M590 155c-15.333 -54.667 -48.5039 -96.666 -99.5039 -125.999s-106.833 -44 -167.5 -44c-84 0 -153.667 23.667 -209 71s-83 112.666 -83 195.999c0 80.667 26.833 147 80.5 199s121.834 78 204.501 78c86.667 0 155.834 -27 207.501 -81s77.5 -126.667 77.5 -218v-15
h-380c1.33301 -32.667 10.833 -58 28.5 -76s41.834 -27 72.501 -27c36.667 0 64.334 14.333 83.001 43h185zM407.996 314.001c-5.33301 58.667 -35.667 88 -91 88c-53.333 0 -85 -29.333 -95 -88h186z" />
    <glyph glyph-name="afii10072" unicode="&#x436;" horiz-adv-x="906" 
d="M359 153l-30 32l-100 -185h-236l214 305l-190 211h229l111 -167h2v167h189v-167h2l110 167h230l-190 -211l213 -305h-236l-100 185l-29 -32v-153h-189v153z" />
    <glyph glyph-name="afii10073" unicode="&#x437;" horiz-adv-x="600" 
d="M24 179l188.001 -0.00390625c0 -22.667 8 -41.167 24 -55.5s35.667 -21.5 59 -21.5c22.667 0 39.834 5.83301 51.501 17.5s17.5 25.834 17.5 42.501c0 20 -6.66699 33.5 -20 40.5s-33.666 10.5 -60.999 10.5c-14 0 -25 -0.333008 -33 -1v104c36.667 0 62.667 3.5 78 10.5
s23 20.833 23 41.5c0 12.667 -5.33301 22.834 -16 30.501s-24.334 11.5 -41.001 11.5c-14.667 0 -28 -4.33301 -40 -13s-19.333 -21.667 -22 -39h-186c0 58 23.667 101 71 129s110 42 188 42s138.167 -13 180.5 -39s63.5 -61.667 63.5 -107
c0 -23.333 -7 -44.166 -21 -62.499s-32.333 -32.166 -55 -41.499c29.333 -5.33301 52.666 -18.5 69.999 -39.5s26 -44.5 26 -70.5c0 -60 -24.833 -105.667 -74.5 -137s-119.834 -47 -210.501 -47c-78.667 0 -141.667 16.167 -189 48.5s-71 79.833 -71 142.5v3z" />
    <glyph glyph-name="afii10074" unicode="&#x438;" horiz-adv-x="648" 
d="M397 516h197v-516h-189v275h-3l-150 -275h-197v516h189v-268h3z" />
    <glyph glyph-name="afii10075" unicode="&#x439;" horiz-adv-x="648" 
d="M492 712c-2 -49.333 -18.668 -87.833 -50.001 -115.5s-70.666 -41.5 -117.999 -41.5c-51.333 0 -92.5 13 -123.5 39s-48.167 65.333 -51.5 118h91c3.33301 -36.667 31.333 -55 84 -55c46.667 0 72.667 18.333 78 55h90zM593.999 0h-189v270h-3l-150 -270h-197v516h189
v-263h3l150 263h197v-516z" />
    <glyph glyph-name="afii10076" unicode="&#x43a;" horiz-adv-x="611" 
d="M597 516l-182 -202l207 -314h-231l-101 175l-41 -46v-129h-197v516h197v-170h3l128 170h217z" />
    <glyph glyph-name="afii10077" unicode="&#x43b;" horiz-adv-x="630" 
d="M574 0l-192.999 -0.00488281v367h-98c0 -91.333 -5.33301 -161.666 -16 -210.999c-12 -59.333 -33.167 -101.833 -63.5 -127.5s-73.5 -38.5 -129.5 -38.5c-8.66699 0 -18.834 1.16699 -30.501 3.5s-21.167 4.5 -28.5 6.5l-11 4v141c12.667 -4.66699 23.334 -7 32.001 -7
s16.167 1.83301 22.5 5.5s11.666 9.33398 15.999 17.001s7.83301 15 10.5 22s4.5 16.333 5.5 28s1.83301 20.834 2.5 27.501s1.16699 15.834 1.5 27.501s0.5 18.834 0.5 21.501c2 46 3 122.333 3 229h476v-516z" />
    <glyph glyph-name="afii10078" unicode="&#x43c;" horiz-adv-x="800" 
d="M235 323h-3l5 -323h-183v516h247l98 -301h1l97 301h248v-516h-183l5 323h-3l-106 -323h-117z" />
    <glyph glyph-name="afii10079" unicode="&#x43d;" horiz-adv-x="648" 
d="M397 346v170h197v-516h-197v197h-145v-197h-197v516h197v-170h145z" />
    <glyph glyph-name="afii10080" unicode="&#x43e;" horiz-adv-x="630" 
d="M317 531c83.333 0 151 -25.002 203 -75.002s78 -115.333 78 -196c0 -81.333 -26.333 -147.5 -79 -198.5s-120.667 -76.5 -204 -76.5c-84 0 -152.333 25.333 -205 76s-79 116.334 -79 197.001s26.5 146.334 79.5 197.001s121.833 76 206.5 76zM313 387.998
c-56 0 -84 -43.333 -84 -130c0 -87.333 28.667 -131 86 -131c56.667 0 85 44.333 85 133c0 85.333 -29 128 -87 128z" />
    <glyph glyph-name="afii10081" unicode="&#x43f;" horiz-adv-x="648" 
d="M594 516v-516h-197v367h-145v-367h-197v516h539z" />
    <glyph glyph-name="afii10082" unicode="&#x440;" horiz-adv-x="648" 
d="M245 516v-56.001c35.333 46 84.666 69 147.999 69c67.333 0 121.5 -25.167 162.5 -75.5s61.5 -116.833 61.5 -199.5c0 -81.333 -19.667 -146.166 -59 -194.499s-92 -72.5 -158 -72.5c-57.333 0 -106.666 22.667 -147.999 68v-221h-197v682h190zM332 370.999
c-57.333 0 -86 -39.333 -86 -118c0 -77.333 29 -116 87 -116c57.333 0 86 39 86 117s-29 117 -87 117z" />
    <glyph glyph-name="afii10083" unicode="&#x441;" horiz-adv-x="611" 
d="M585 207c-9.33301 -69.333 -37.832 -123.332 -85.499 -161.999s-109.167 -58 -184.5 -58c-83.333 0 -151.166 24.667 -203.499 74s-78.5 113.666 -78.5 192.999c0 82 26 148.167 78 198.5s120.333 75.5 205 75.5c74.667 0 136.167 -19 184.5 -57s75.166 -88 80.499 -150
h-189c-2.66699 20.667 -10.834 37 -24.501 49s-30.167 18 -49.5 18c-58 0 -87 -45 -87 -135c0 -81.333 28.667 -122 86 -122c44.667 0 71 25.333 79 76h189z" />
    <glyph glyph-name="afii10084" unicode="&#x442;" horiz-adv-x="556" 
d="M180 367h-165v149h526v-149h-165v-367h-196v367z" />
    <glyph glyph-name="afii10085" unicode="&#x443;" horiz-adv-x="556" 
d="M567 516l-189 -527.999c-20.667 -58 -45.834 -98.333 -75.501 -121s-74.834 -34 -135.501 -34h-129v158c14 -0.666992 29.333 -1 46 -1c10.667 0 19.334 0.333008 26.001 1s14.334 2.16699 23.001 4.5s15.334 6.66602 20.001 12.999s7 14.5 7 24.5c0 6.66699 -2 15 -6 25
l-168 458h210l58 -204c9.33301 -33.333 17.666 -73.333 24.999 -120c12 61.333 21.333 103.333 28 126l57 198h203z" />
    <glyph glyph-name="afii10086" unicode="&#x444;" horiz-adv-x="900" 
d="M869 262c0 -86.667 -20.002 -154.5 -60.002 -203.5s-92 -73.5 -156 -73.5c-24 0 -45.667 5.16699 -65 15.5s-32.333 20.833 -39 31.5h-3v-206h-191v206h-3c-6.66699 -10.667 -19.667 -21.167 -39 -31.5s-41 -15.5 -65 -15.5c-64 0 -116 24.5 -156 73.5
s-60 116.833 -60 203.5c0 78.667 17.833 143 53.5 193s86.834 75 153.501 75c24 0 47 -5.83301 69 -17.5s36.667 -24.834 44 -39.501h3v239h191v-239h3c7.33301 14.667 22 27.834 44 39.501s45 17.5 69 17.5c66.667 0 117.834 -25.167 153.501 -75.5
s53.5 -114.5 53.5 -192.5zM676.998 267c0 76.667 -26.334 115 -79.001 115c-10.667 0 -21.167 -2.66699 -31.5 -8s-17.166 -12 -20.499 -20v-190c4 -8 11 -15 21 -21s19.667 -9 29 -9c54 0 81 44.333 81 133zM354.997 164l-0.000976562 190
c-3.33301 8 -10.166 14.667 -20.499 20s-20.833 8 -31.5 8c-52.667 0 -79 -38.333 -79 -115c0 -88.667 27 -133 81 -133c9.33301 0 19 3 29 9s17 13 21 21z" />
    <glyph glyph-name="afii10087" unicode="&#x445;" horiz-adv-x="556" 
d="M546 516l-160.998 -243.999l183 -272h-217l-38 62c-10.667 17.333 -22.334 42.333 -35.001 75c-14.667 -34 -27.334 -59.667 -38.001 -77l-35 -60h-218l181 272l-162 244h216l27 -48c14 -26.667 24.333 -47.334 31 -62.001c15.333 34.667 26.333 58 33 70l23 40h210z" />
    <glyph glyph-name="afii10088" unicode="&#x446;" horiz-adv-x="667" 
d="M655 -137h-180v137h-420v516h197v-365h138v365h197v-365h68v-288z" />
    <glyph glyph-name="afii10089" unicode="&#x447;" horiz-adv-x="611" 
d="M558 516v-515.999h-183v203c-56.667 -20 -109.667 -30 -159 -30c-118.667 0 -178 68.667 -178 206v137h197v-112c0 -34.667 5.5 -58.834 16.5 -72.501s28.833 -20.5 53.5 -20.5c21.333 0 40 5.33301 56 16v189h197z" />
    <glyph glyph-name="afii10090" unicode="&#x448;" horiz-adv-x="920" 
d="M54 0v516h193v-365h117v365h192v-365h117v365h193v-516h-812z" />
    <glyph glyph-name="afii10091" unicode="&#x449;" horiz-adv-x="940" 
d="M49 0v516h193v-365h117v365h192v-365h117v365h193v-365h67v-288h-180v137h-699z" />
    <glyph glyph-name="afii10092" unicode="&#x44a;" horiz-adv-x="686" 
d="M665 181c0 -56.667 -17.667 -101.001 -53 -133.001s-88 -48 -158 -48h-314v367h-134v149h330v-161h124c68.667 0 120 -15.167 154 -45.5s51 -73.166 51 -128.499zM462 176.999c0 38.667 -21.667 58 -65 58h-60v-115h59c44 0 66 19 66 57z" />
    <glyph glyph-name="afii10093" unicode="&#x44b;" horiz-adv-x="853" 
d="M801 0h-192v516h192v-516zM556 181c0 -56.667 -17.668 -101.001 -53.001 -133.001s-87.666 -48 -156.999 -48h-294v516h192v-161h107c69.333 0 120.833 -15.167 154.5 -45.5s50.5 -73.166 50.5 -128.499zM358.999 176.999c0 38 -22 57 -66 57h-49v-114h49
c44 0 66 19 66 57z" />
    <glyph glyph-name="afii10094" unicode="&#x44c;" horiz-adv-x="600" 
d="M578 181c0 -56.667 -17.668 -101.001 -53.001 -133.001s-87.666 -48 -156.999 -48h-314v516h197v-161h122c69.333 0 120.833 -15.167 154.5 -45.5s50.5 -73.166 50.5 -128.499zM375.999 176.999c0 38 -22 57 -66 57h-59v-114h59c44 0 66 19 66 57z" />
    <glyph glyph-name="afii10095" unicode="&#x44d;" horiz-adv-x="611" 
d="M578 254c0 -79.333 -26.1689 -143.667 -78.502 -193s-120.166 -74 -203.499 -74c-74 0 -134.5 18.5 -181.5 55.5s-76.167 88.833 -87.5 155.5h190c8.66699 -44.667 34.334 -67 77.001 -67c47.333 0 75 28 83 84h-123v99h120c-12 49.333 -39 74 -81 74
c-18.667 0 -34.5 -5.16699 -47.5 -15.5s-21.5 -24.833 -25.5 -43.5h-189c6.66699 60 34 108.167 82 144.5s108.667 54.5 182 54.5c84.667 0 153 -25.167 205 -75.5s78 -116.5 78 -198.5z" />
    <glyph glyph-name="afii10096" unicode="&#x44e;" horiz-adv-x="888" 
d="M593 531c78 0 141.5 -25 190.5 -75s73.5 -115.333 73.5 -196c0 -81.333 -24.667 -147.5 -74 -198.5s-113.333 -76.5 -192 -76.5c-69.333 0 -127.5 19.667 -174.5 59s-76.167 92 -87.5 158h-77v-202h-197v516h197v-175h83c15.333 58.667 46 105 92 139s101.333 51 166 51z
M589 388c-46.667 0 -70 -43.333 -70 -130c0 -87.333 24 -131 72 -131c47.333 0 71 44.333 71 133c0 85.333 -24.333 128 -73 128z" />
    <glyph glyph-name="afii10097" unicode="&#x44f;" horiz-adv-x="611" 
d="M329 176l-93.001 -176h-236l133 194c-36 15.333 -62.167 37.833 -78.5 67.5s-24.5 59.167 -24.5 88.5c0 50.667 18.833 91 56.5 121s93.834 45 168.501 45h301v-516h-197v176h-30zM358.999 290v111h-55c-46.667 0 -70 -18.333 -70 -55c0 -37.333 23 -56 69 -56h56z" />
    <glyph glyph-name="afii10071" unicode="&#x451;" horiz-adv-x="630" 
d="M590 155c-15.333 -54.667 -48.5039 -96.666 -99.5039 -125.999s-106.833 -44 -167.5 -44c-84 0 -153.667 23.667 -209 71s-83 112.666 -83 195.999c0 80.667 26.833 147 80.5 199s121.834 78 204.501 78c86.667 0 155.834 -27 207.501 -81s77.5 -126.667 77.5 -218v-15
h-380c1.33301 -32.667 10.833 -58 28.5 -76s41.834 -27 72.501 -27c36.667 0 64.334 14.333 83.001 43h185zM407.996 314.001c-5.33301 58.667 -35.667 88 -91 88c-53.333 0 -85 -29.333 -95 -88h186zM518.995 712.001v-138h-175v138h175zM289.995 712.001v-138h-176v138
h176z" />
    <glyph glyph-name="afii10099" unicode="&#x452;" horiz-adv-x="630" 
d="M584 99c0 -29.333 -1.16895 -55.498 -3.50195 -78.498s-7.66602 -47.333 -15.999 -73s-19.333 -46.834 -33 -63.501s-32.667 -30.667 -57 -42s-53.166 -17 -86.499 -17c-24 0 -53.667 1 -89 3v145c35.333 0 58.833 10.667 70.5 32s17.5 52.666 17.5 93.999v4
c0 64.667 -23 97 -69 97c-28.667 0 -48.5 -9 -59.5 -27s-16.5 -44.667 -16.5 -80v-93h-197v409h-45v120h45v183h197v-183h196v-120h-196v-128c41.333 53.333 91.333 80 150 80c128 0 192 -73.667 192 -221v-41z" />
    <glyph glyph-name="afii10100" unicode="&#x453;" horiz-adv-x="500" 
d="M59 516h430v-149h-233v-367h-197v516zM437 712l-178 -145h-131l98 145h211z" />
    <glyph glyph-name="afii10101" unicode="&#x454;" horiz-adv-x="611" 
d="M357 215l-123.002 0.000976562c8 -56 35.667 -84 83 -84c42.667 0 68.334 22.333 77.001 67h190c-11.333 -66.667 -40.5 -118.5 -87.5 -155.5s-107.5 -55.5 -181.5 -55.5c-83.333 0 -151.166 24.667 -203.499 74s-78.5 113.666 -78.5 192.999c0 82 26 148.167 78 198.5
s120.333 75.5 205 75.5c73.333 0 134 -18.167 182 -54.5s75.333 -84.5 82 -144.5h-189c-4 18.667 -12.5 33.167 -25.5 43.5s-28.833 15.5 -47.5 15.5c-42 0 -69 -24.667 -81 -74h120v-99z" />
    <glyph glyph-name="afii10102" unicode="&#x455;" horiz-adv-x="574" 
d="M533 365l-179 0.00488281c-3.33301 18.667 -10 31.334 -20 38.001s-26.667 10 -50 10c-36 0 -54 -10.333 -54 -31c0 -7.33301 2.83301 -13.833 8.5 -19.5s14.167 -10.334 25.5 -14.001s21 -6.33398 29 -8.00098s18.333 -3.33398 31 -5.00098s19.334 -2.5 20.001 -2.5
c24 -4.66699 43.833 -8.83398 59.5 -12.501s33.5 -9.83398 53.5 -18.501s36 -18.334 48 -29.001s22.167 -25 30.5 -43s12.5 -38.667 12.5 -62c0 -56.667 -23 -101 -69 -133s-109.667 -48 -191 -48c-164.667 0 -252 61.667 -262 185h187
c2.66699 -21.333 10.167 -36.833 22.5 -46.5s31.166 -14.5 56.499 -14.5c19.333 0 34.5 3.66699 45.5 11s16.5 17.333 16.5 30s-5.33301 21.667 -16 27s-31 11.333 -61 18c-10 2 -18 3.66699 -24 5c-68 14.667 -113.333 27.667 -136 39c-53.333 26 -80 68.333 -80 127
c0 52.667 21.5 93 64.5 121s105.167 42 186.5 42c70 0 127 -12.167 171 -36.5s68.667 -67.5 74 -129.5z" />
    <glyph glyph-name="afii10103" unicode="&#x456;" horiz-adv-x="315" 
d="M256 712v-138h-198v138h198zM256 516v-516h-198v516h198z" />
    <glyph glyph-name="afii10104" unicode="&#x457;" horiz-adv-x="315" 
d="M256 516v-516h-198v516h198zM360 712v-138h-175v138h175zM131 712v-138h-176v138h176z" />
    <glyph glyph-name="afii10105" unicode="&#x458;" horiz-adv-x="315" 
d="M259 516l-0.00390625 -503.999c0 -37.333 -4.16699 -68 -12.5 -92s-21.666 -42.333 -39.999 -55s-39.166 -21.167 -62.499 -25.5s-53 -6.5 -89 -6.5c-9.33301 0 -23.166 0.166992 -41.499 0.5s-32.166 0.5 -41.499 0.5v157c4 -0.666992 8 -1 12 -1
c32.667 0 53.5 3.16699 62.5 9.5s13.5 24.166 13.5 53.499v463h199zM258.996 712.001v-141h-199v141h199z" />
    <glyph glyph-name="afii10106" unicode="&#x459;" horiz-adv-x="902" 
d="M882 181c0 -56.667 -17.6641 -101.006 -52.9971 -133.006s-88 -48 -158 -48h-294v367h-87c0 -91.333 -5.33301 -161.666 -16 -210.999c-12 -58.667 -33.833 -101 -65.5 -127s-75.834 -39 -132.501 -39c-8.66699 0 -18.834 1.16699 -30.501 3.5s-21.167 4.5 -28.5 6.5
l-11 4v141c12 -4.66699 22.333 -7 31 -7s16.167 1.83301 22.5 5.5s11.666 9.33398 15.999 17.001s7.83301 15 10.5 22s4.5 16.333 5.5 28s1.83301 20.834 2.5 27.501s1.16699 15.834 1.5 27.501s0.5 18.834 0.5 21.501c2 46 3 122.333 3 229h475v-161h103
c68.667 0 120 -15.167 154 -45.5s51 -73.166 51 -128.499zM679.003 176.994c0 38.667 -21.667 58 -65 58h-40v-115h39c44 0 66 19 66 57z" />
    <glyph glyph-name="afii10107" unicode="&#x45a;" horiz-adv-x="902" 
d="M882 175c0 -56.667 -17.5 -100 -52.5 -130s-87.833 -45 -158.5 -45h-294v224h-125v-224h-197v516h197v-172h125v172h197v-172h103c136.667 0 205 -56.333 205 -169zM679 171c0 20.667 -5.66797 34.666 -17.001 41.999s-27.333 11 -48 11h-40v-104h39
c20.667 0 36.834 3.33301 48.501 10s17.5 20.334 17.5 41.001z" />
    <glyph glyph-name="afii10108" unicode="&#x45b;" horiz-adv-x="630" 
d="M584 0h-197v103c0 64.667 -23 97 -69 97c-28.667 0 -48.5 -9 -59.5 -27s-16.5 -44.667 -16.5 -80v-93h-197v409h-45v120h45v183h197v-183h196v-120h-196v-128c41.333 53.333 91.333 80 150 80c128 0 192 -73.667 192 -221v-140z" />
    <glyph glyph-name="afii10109" unicode="&#x45c;" horiz-adv-x="611" 
d="M597 516l-182 -202l207 -314h-231l-101 175l-41 -46v-129h-197v516h197v-170h3l128 170h217zM492 712l-178 -145h-131l98 145h211z" />
    <glyph glyph-name="afii10110" unicode="&#x45e;" horiz-adv-x="556" 
d="M567 516l-189 -527.999c-20.667 -58 -45.834 -98.333 -75.501 -121s-74.834 -34 -135.501 -34h-129v158c14 -0.666992 29.333 -1 46 -1c10.667 0 19.334 0.333008 26.001 1s14.334 2.16699 23.001 4.5s15.334 6.66602 20.001 12.999s7 14.5 7 24.5c0 6.66699 -2 15 -6 25
l-168 458h210l58 -204c9.33301 -33.333 17.666 -73.333 24.999 -120c12 61.333 21.333 103.333 28 126l57 198h203zM109 712.001h90.999c3.33301 -36.667 31.333 -55 84 -55c46.667 0 72.667 18.333 78 55h90c-2 -49.333 -18.667 -87.833 -50 -115.5
s-70.666 -41.5 -117.999 -41.5c-51.333 0 -92.5 13 -123.5 39s-48.167 65.333 -51.5 118z" />
    <glyph glyph-name="afii10193" unicode="&#x45f;" horiz-adv-x="648" 
d="M415 0v-137h-180v137h-180v516h197v-365h145v365h197v-516h-179z" />
    <glyph glyph-name="afii10050" unicode="&#x490;" horiz-adv-x="611" 
d="M270 529v-529h-219v712h359v160h186v-343h-326z" />
    <glyph glyph-name="afii10098" unicode="&#x491;" horiz-adv-x="500" 
d="M52 516h273v131h162v-280h-238v-367h-197v516z" />
    <glyph glyph-name="endash" unicode="&#x2013;" horiz-adv-x="500" 
d="M500 351v-169h-500v169h500z" />
    <glyph glyph-name="emdash" unicode="&#x2014;" horiz-adv-x="1000" 
d="M1000 351v-169h-1000v169h1000z" />
    <glyph glyph-name="quoteleft" unicode="&#x2018;" horiz-adv-x="296" 
d="M249 718v-92c-53.333 -8 -82.333 -39 -87 -93h87v-205h-203v161c0 74 16.5 129.167 49.5 165.5s84.167 57.5 153.5 63.5z" />
    <glyph glyph-name="quoteright" unicode="&#x2019;" horiz-adv-x="296" 
d="M249 551c0 -74 -16.5 -129.167 -49.5 -165.5s-84.167 -57.5 -153.5 -63.5v92c53.333 8 82.333 39 87 93h-87v205h203v-161z" />
    <glyph glyph-name="quotesinglbase" unicode="&#x201a;" horiz-adv-x="296" 
d="M249 43c0 -74 -16.5 -129.167 -49.5 -165.5s-84.167 -57.5 -153.5 -63.5v92c53.333 8 82.333 39 87 93h-87v205h203v-161z" />
    <glyph glyph-name="quotedblleft" unicode="&#x201c;" horiz-adv-x="519" 
d="M224 718v-85.999c-27.333 -6 -46.833 -16.667 -58.5 -32s-18.167 -37 -19.5 -65h78v-205h-176v168c0 65.333 13.333 115.666 40 150.999s72 58.333 136 69zM466 718.001v-85.999c-27.333 -6 -46.833 -16.667 -58.5 -32s-18.167 -37 -19.5 -65h78v-205h-176v168
c0 65.333 13.333 115.666 40 150.999s72 58.333 136 69z" />
    <glyph glyph-name="quotedblright" unicode="&#x201d;" horiz-adv-x="519" 
d="M468 544c0 -65.333 -13.333 -115.667 -40 -151s-72 -58.333 -136 -69v86c27.333 6 46.833 16.667 58.5 32s18.167 37 19.5 65h-78v205h176v-168zM226 543.999c0 -65.333 -13.333 -115.667 -40 -151s-72 -58.333 -136 -69v86c27.333 6 46.833 16.667 58.5 32
s18.167 37 19.5 65h-78v205h176v-168z" />
    <glyph glyph-name="quotedblbase" unicode="&#x201e;" horiz-adv-x="519" 
d="M470 36c0 -65.333 -13.333 -115.667 -40 -151s-72 -58.333 -136 -69v86c27.333 6 46.833 16.667 58.5 32s18.167 37 19.5 65h-78v205h176v-168zM228 35.999c0 -65.333 -13.333 -115.667 -40 -151s-72 -58.333 -136 -69v86c27.333 6 46.833 16.667 58.5 32
s18.167 37 19.5 65h-78v205h176v-168z" />
    <glyph glyph-name="dagger" unicode="&#x2020;" horiz-adv-x="667" 
d="M606 528v-170h-176v-531h-194v531h-175v170h175v184h194v-184h176z" />
    <glyph glyph-name="daggerdbl" unicode="&#x2021;" horiz-adv-x="667" 
d="M606 532v-164h-176v-195h176v-163h-176v-182h-193v182h-176v163h176v195h-176v164h176v180h193v-180h176z" />
    <glyph glyph-name="bullet" unicode="&#x2022;" horiz-adv-x="500" 
d="M250 536c50 0.666992 92.667 -16.667 128 -52s53 -78 53 -128s-17.5 -92.667 -52.5 -128s-77.833 -53 -128.5 -53c-50 0 -92.667 17.667 -128 53s-53 78 -53 128s17.667 92.5 53 127.5s78 52.5 128 52.5z" />
    <glyph glyph-name="ellipsis" unicode="&#x2026;" horiz-adv-x="1000" 
d="M270 205v-205h-206v205h206zM603 205v-205h-206v205h206zM936 205v-205h-206v205h206z" />
    <glyph glyph-name="perthousand" unicode="&#x2030;" horiz-adv-x="1167" 
d="M666 709l-407 -729h-110l407 729h110zM211 700c95.333 0 143 -58 143 -174c0 -55.333 -12.5 -98 -37.5 -128s-60.833 -45 -107.5 -45c-46 0 -81.5 15 -106.5 45s-37.5 72.333 -37.5 127c0 56.667 12.5 100 37.5 130s61.167 45 108.5 45zM210 624
c-14.667 0 -24.834 -7.66797 -30.501 -23.001s-8.5 -43 -8.5 -83c0 -58 12.667 -87 38 -87c14.667 0 24.834 7.33301 30.501 22s8.5 40.667 8.5 78c0 34.667 -2.83301 58.834 -8.5 72.501s-15.5 20.5 -29.5 20.5zM612 331.999c95.333 0 143 -58 143 -174
c0 -55.333 -12.5 -98 -37.5 -128s-60.833 -45 -107.5 -45c-46 0 -81.5 15 -106.5 45s-37.5 72.333 -37.5 127c0 56.667 12.5 100 37.5 130s61.167 45 108.5 45zM611 255.999c-14.667 0 -24.834 -7.66797 -30.501 -23.001s-8.5 -43 -8.5 -83c0 -58 12.667 -87 38 -87
c14.667 0 24.834 7.33301 30.501 22s8.5 40.667 8.5 78c0 34.667 -2.83301 58.834 -8.5 72.501s-15.5 20.5 -29.5 20.5zM957 331.998c95.333 0 143 -58 143 -174c0 -55.333 -12.5 -98 -37.5 -128s-60.833 -45 -107.5 -45c-46 0 -81.5 15 -106.5 45s-37.5 72.333 -37.5 127
c0 56.667 12.5 100 37.5 130s61.167 45 108.5 45zM956 255.998c-14.667 0 -24.834 -7.66797 -30.501 -23.001s-8.5 -43 -8.5 -83c0 -58 12.667 -87 38 -87c14.667 0 24.834 7.33301 30.501 22s8.5 40.667 8.5 78c0 34.667 -2.83301 58.834 -8.5 72.501
s-15.5 20.5 -29.5 20.5z" />
    <glyph glyph-name="guilsinglleft" unicode="&#x2039;" horiz-adv-x="241" 
d="M200 481v-153l-77 -62l77 -62v-155l-160 127v177z" />
    <glyph glyph-name="guilsinglright" unicode="&#x203a;" horiz-adv-x="241" 
d="M40 483l161 -128v-179l-161 -127v150l78 65l-78 63v156z" />
    <glyph glyph-name="afii61352" unicode="&#x2116;" horiz-adv-x="1167" 
d="M267 693l224 -385l-9 161v224h214v-693h-209l-224 372l9 -162v-210h-214v693h209zM752 303c0 52.667 16.5 93.5 49.5 122.5s77.167 43.5 132.5 43.5c57.333 0 102.5 -14.5 135.5 -43.5s49.5 -67.833 49.5 -116.5c0 -54 -17.167 -95.167 -51.5 -123.5
s-78.5 -42.5 -132.5 -42.5s-98 13.833 -132 41.5s-51 67.167 -51 118.5zM1109 0h-348v113h348v-113zM884 309c0 -52.667 17 -79 51 -79s51 26.333 51 79c0 22 -4.66699 39.5 -14 52.5s-21.333 19.5 -36 19.5c-17.333 0 -30.333 -7 -39 -21s-13 -31 -13 -51z" />
    <glyph glyph-name="trademark" unicode="&#x2122;" horiz-adv-x="1000" 
d="M157 354v270h-97v88h311v-88h-98v-270h-116zM423 354v358h161l66 -207l67 207h161v-358h-104v269l-87 -269h-73l-87 269v-269h-104z" />
    <glyph glyph-name="Delta" unicode="&#x2206;" horiz-adv-x="714" 
d="M428 712l275 -712h-692l254 712h163zM213 140h280l-145 405z" />
    <glyph glyph-name="radical" unicode="&#x221a;" horiz-adv-x="600" 
d="M612 786l-213 -1000h-172l-134 293l-57 -26l-53 114l207 86l100 -241l147 774h175z" />
    <glyph glyph-name="infinity" unicode="&#x221e;" horiz-adv-x="873" 
d="M627 51c-69.333 0 -132.668 35.335 -190.001 106.002c-28.667 -34 -57.167 -60 -85.5 -78s-62.166 -27 -101.499 -27c-62.667 0 -112.5 19.667 -149.5 59s-55.5 89.666 -55.5 150.999s18 111.166 54 149.499s84.667 57.5 146 57.5c41.333 0 76.5 -9.66699 105.5 -29
s57.833 -47 86.5 -83c28.667 36.667 57 64.5 85 83.5s63.333 28.5 106 28.5c62 0 110.833 -19.333 146.5 -58s53.5 -88 53.5 -148c0 -61.333 -18 -112 -54 -152s-85 -60 -147 -60zM622.998 328.002c-31.333 0 -65.332 -23.333 -101.999 -70c35.333 -44 70.333 -66 105 -66
c19.333 0 34.666 6.5 45.999 19.5s17 29.5 17 49.5s-6 36.167 -18 48.5s-28 18.5 -48 18.5zM245.999 328.002c-18.667 0 -33.833 -6.66699 -45.5 -20s-17.5 -29.333 -17.5 -48c0 -20 5.83301 -36.167 17.5 -48.5s27.5 -18.5 47.5 -18.5c34 0 68.333 21.667 103 65
c-36.667 46.667 -71.667 70 -105 70z" />
    <glyph glyph-name="approxequal" unicode="&#x2248;" horiz-adv-x="600" 
d="M97 273h-95.998c18.667 150.667 74.334 226 167.001 226c32.667 0 70 -8 112 -24c78.667 -30.667 128.334 -46 149.001 -46c19.333 0 34.666 4.83301 45.999 14.5s20.666 28.167 27.999 55.5h97c-2 -23.333 -6.66699 -47.333 -14 -72s-17.5 -49 -30.5 -73
s-30.333 -43.5 -52 -58.5s-45.834 -22.5 -72.501 -22.5c-32 0 -79 11.667 -141 35l-25.5 10c-11.667 4.66699 -20.334 8 -26.001 10l-22 7.5c-9 3 -17.333 5 -25 6s-15.167 1.5 -22.5 1.5c-18.667 0 -33.667 -5.16699 -45 -15.5s-20.333 -28.5 -27 -54.5zM97.002 28h-95.998
c18.667 150.667 74.334 226 167.001 226c32.667 0 70 -8 112 -24c78.667 -30.667 128.334 -46 149.001 -46c19.333 0 34.666 4.83301 45.999 14.5s20.666 28.167 27.999 55.5h97c-2 -23.333 -6.66699 -47.333 -14 -72s-17.5 -49 -30.5 -73s-30.333 -43.5 -52 -58.5
s-45.834 -22.5 -72.501 -22.5c-32 0 -79 11.667 -141 35l-25.5 10c-11.667 4.66699 -20.334 8 -26.001 10l-22 7.5c-9 3 -17.333 5 -25 6s-15.167 1.5 -22.5 1.5c-18.667 0 -33.667 -5.16699 -45 -15.5s-20.333 -28.5 -27 -54.5z" />
    <glyph glyph-name="notequal" unicode="&#x2260;" horiz-adv-x="600" 
d="M21 234h186l33 67h-219v153h295l80 161l128 -63l-49 -98h105v-153h-181l-33 -67h214v-152h-289l-86 -173l-128 63l55 110h-111v152z" />
    <glyph glyph-name="lessequal" unicode="&#x2264;" horiz-adv-x="600" 
d="M29 288v145l540 155v-160l-317 -67l317 -78v-160zM29 97h540v-162h-540v162z" />
    <glyph glyph-name="greaterequal" unicode="&#x2265;" horiz-adv-x="600" 
d="M569 288l-540 -165v160l317 78l-317 67v160l540 -155v-145zM569 -65h-540v162h540v-162z" />
    <glyph glyph-name="hyphenminus" unicode="&#xe000;" horiz-adv-x="407" 
d="M360 352v-170h-313v170h313z" />
    <glyph glyph-name="nbspace" unicode="&#xe001;" horiz-adv-x="334" 
 />
    <glyph glyph-name=".null" horiz-adv-x="0" 
 />
    <glyph glyph-name="nonmarkingreturn" horiz-adv-x="333" 
 />
    </font>
</defs>
</svg>
