<?xml version="1.0" encoding="UTF-8"?>
<svg width="106px" height="28px" viewBox="0 0 106 28" version="1.1" xmlns="http://www.w3.org/2000/svg" xmlns:xlink="http://www.w3.org/1999/xlink">
    <!-- Generator: Sketch 44.1 (41455) - http://www.bohemiancoding.com/sketch -->
    <title>Logo</title>
    <desc>Created with Sketch.</desc>
    <defs></defs>
    <g id="Symbols" stroke="none" stroke-width="1" fill="none" fill-rule="evenodd">
        <g id="Menu-A-(W)" transform="translate(-50.000000, -18.000000)" fill="#FFFFFF">
            <g id="Logo-(white)" transform="translate(50.000000, 18.000000)">
                <g id="Logo">
                    <path d="M98.5846943,14.0499046 C97.9486943,14.0483969 97.4777514,13.6473508 97.48078,12.9402431 L97.5156086,5.82092 L96.6418657,5.81639692 C95.93318,5.81338154 95.6378943,5.31584308 95.6409229,4.83338154 C95.6439514,4.33885846 96.0149514,3.85639692 96.6524657,3.85941231 L98.75278,3.86845846 C99.38878,3.87147385 99.7431229,4.31172 99.7400943,4.87861231 L99.7007229,12.9492892 C99.69618,13.6563969 99.2206943,14.0514123 98.5846943,14.0499046 M93.8419514,11.2079046 L91.6962086,11.2003662 L91.6871229,13.2568585 C91.6840943,13.7679662 91.3418657,14.1056892 90.7936943,14.1041815 C90.2455229,14.1026738 89.9078371,13.7604277 89.9108657,13.24932 L89.9199514,11.1928277 L87.7757229,11.1852892 C87.2275514,11.1822738 86.8883514,10.8415354 86.89138,10.3304277 C86.8944086,9.81932 87.2366371,9.48159692 87.7832943,9.48310462 L89.9290371,9.49215077 L89.9396371,7.43565846 C89.9411514,6.92455077 90.28338,6.58532 90.8315514,6.58682769 C91.3782086,6.58984308 91.7174086,6.93208923 91.71438,7.44168923 L91.7052943,9.49818154 L93.8495229,9.50722769 C94.3976943,9.51024308 94.73538,9.85098154 94.7338657,10.3620892 C94.7308371,10.8716892 94.3886086,11.21092 93.8419514,11.2079046 M95.8862371,0.433935385 L91.1056371,0.575658462 C86.1569514,0.723412308 82.2622086,4.83639692 82.4106086,9.76504308 C82.5574943,14.6921815 86.6884657,18.5684585 91.6386657,18.4222123 L96.4177514,18.2804892 C101.367951,18.1342431 105.26118,14.0212585 105.114294,9.09261231 C104.967409,4.16396615 100.836437,0.289196923 95.8862371,0.433935385" id="Fill-1"></path>
                    <path d="M14.4194829,17.0535292 C14.4194829,13.8406369 12.7113686,10.9473754 9.32391143,10.9473754 C5.93645429,10.9473754 4.22834,13.8406369 4.22834,17.0535292 C4.22834,20.2920523 5.88194,23.1596831 9.32391143,23.1596831 C12.7658829,23.1596831 14.4194829,20.2920523 14.4194829,17.0535292 M0.000454285714,17.0535292 C0.000454285714,11.5308523 3.79525429,7.28368308 9.32391143,7.28368308 C14.7723114,7.28368308 18.6473686,11.6635292 18.6473686,17.0535292 C18.6473686,22.5490677 14.8798257,26.8233754 9.32391143,26.8233754 C3.82099714,26.8233754 0.000454285714,22.5490677 0.000454285714,17.0535292" id="Fill-4"></path>
                    <path d="M54.50626,26.66356 C53.34026,26.66356 52.4725743,25.9202677 52.4725743,24.5934985 L52.4725743,14.6909754 L52.4195743,14.6909754 L43.6382314,25.7875908 C43.1763743,26.3725754 42.4449743,26.66356 41.9301171,26.66356 C40.7641171,26.66356 39.8979457,25.9202677 39.8979457,24.5934985 L39.8979457,9.51356 C39.8979457,8.18679077 40.7641171,7.44199077 41.9301171,7.44199077 C43.0961171,7.44199077 43.9622886,8.18679077 43.9622886,9.51356 L43.9622886,19.54876 L44.0168029,19.54876 L52.7981457,8.31946769 C53.2600029,7.73448308 53.9914029,7.44199077 54.50626,7.44199077 C55.67226,7.44199077 56.5384314,8.18679077 56.5384314,9.51356 L56.5384314,24.5934985 C56.5384314,25.9202677 55.67226,26.66356 54.50626,26.66356" id="Fill-6"></path>
                    <path d="M59.79036,9.51356 C59.79036,8.18679077 60.6580457,7.44199077 61.8240457,7.44199077 C62.9885314,7.44199077 63.8562171,8.18679077 63.8562171,9.51356 L63.8562171,15.1417754 L72.3665029,15.1417754 L72.3665029,9.51356 C72.3665029,8.18679077 73.2341886,7.44199077 74.3986743,7.44199077 C75.5646743,7.44199077 76.43236,8.18679077 76.43236,9.51356 L76.43236,24.5934985 C76.43236,25.9202677 75.5646743,26.66356 74.3986743,26.66356 C73.2341886,26.66356 72.3665029,25.9202677 72.3665029,24.5934985 L72.3665029,18.8054677 L63.8562171,18.8054677 L63.8562171,24.5934985 C63.8562171,25.9202677 62.9885314,26.66356 61.8240457,26.66356 C60.6580457,26.66356 59.79036,25.9202677 59.79036,24.5934985 L59.79036,9.51356 Z" id="Fill-8"></path>
                    <path d="M30.5410229,22.8148738 L24.48388,22.8148738 L24.1386229,22.8148738 L28.5739657,11.7755508 C28.6769371,11.5207508 28.9207371,11.3564123 29.1948229,11.3564123 L31.7524514,11.3564123 L31.7524514,22.8148738 L30.5410229,22.8148738 Z M35.3867371,22.8766892 L35.3867371,9.54718154 C35.3867371,8.54908923 34.5735657,7.73795077 33.5695943,7.73795077 L29.1948229,7.73795077 C27.4246229,7.73795077 25.8573371,8.79635077 25.2001371,10.4321969 L20.2090514,22.8540738 C19.5427657,22.9490585 18.9673371,23.3877969 18.7432229,24.0361046 L18.2223086,25.5437969 C17.8967371,26.48912 18.4009943,27.5173662 19.3504514,27.8430277 C19.5457943,27.9093662 19.74568,27.9410277 19.9410229,27.9410277 C20.6951371,27.9410277 21.4007943,27.4706277 21.6597371,26.7197969 L21.7581657,26.4333354 L24.48388,26.4333354 L30.5410229,26.4333354 L33.29248,26.4333354 C33.4363371,27.2897046 34.1843943,27.9410277 35.08388,27.9410277 C36.0878514,27.9410277 36.9010229,27.1313969 36.9010229,26.1317969 L36.9010229,24.6241046 C36.9010229,23.7315508 36.2407943,23.0244431 35.3867371,22.8766892 L35.3867371,22.8766892 Z" id="Fill-10"></path>
                </g>
            </g>
        </g>
    </g>
</svg>