<?xml version="1.0" encoding="UTF-8"?>
<svg width="106px" height="28px" viewBox="0 0 106 28" version="1.1" xmlns="http://www.w3.org/2000/svg" xmlns:xlink="http://www.w3.org/1999/xlink">
    <!-- Generator: Sketch 44.1 (41455) - http://www.bohemiancoding.com/sketch -->
    <title>Page 1</title>
    <desc>Created with Sketch.</desc>
    <defs>
        <polygon id="path-1" points="0.635076165 0.0583692308 23.346889 0.0583692308 23.346889 18.0538181 0.635076165 18.0538181 0.635076165 0.0583692308"></polygon>
    </defs>
    <g id="Symbols" stroke="none" stroke-width="1" fill="none" fill-rule="evenodd">
        <g id="Menu-A-(B)" transform="translate(-50.000000, -18.000000)">
            <g id="Page-1" transform="translate(50.000000, 18.000000)">
                <g id="Group-3" transform="translate(81.771429, 0.372400)">
                    <mask id="mask-2" fill="white">
                        <use xlink:href="#path-1"></use>
                    </mask>
                    <g id="Clip-2"></g>
                    <path d="M16.8132657,13.6775046 C16.1772657,13.6759969 15.7063229,13.2749508 15.7093514,12.5678431 L15.74418,5.44852 L14.8704371,5.44399692 C14.1617514,5.44098154 13.8664657,4.94344308 13.8694943,4.46098154 C13.8725229,3.96645846 14.2435229,3.48399692 14.8810371,3.48701231 L16.9813514,3.49605846 C17.6173514,3.49907385 17.9716943,3.93932 17.9686657,4.50621231 L17.9292943,12.5768892 C17.9247514,13.2839969 17.4492657,13.6790123 16.8132657,13.6775046 M12.0705229,10.8355046 L9.92478,10.8279662 L9.91569429,12.8844585 C9.91266571,13.3955662 9.57043714,13.7332892 9.02226571,13.7317815 C8.47409429,13.7302738 8.13640857,13.3880277 8.13943714,12.87692 L8.14852286,10.8204277 L6.00429429,10.8128892 C5.45612286,10.8098738 5.11692286,10.4691354 5.11995143,9.95802769 C5.12298,9.44692 5.46520857,9.10919692 6.01186571,9.11070462 L8.15760857,9.11975077 L8.16820857,7.06325846 C8.16972286,6.55215077 8.51195143,6.21292 9.06012286,6.21442769 C9.60678,6.21744308 9.94598,6.55968923 9.94295143,7.06928923 L9.93386571,9.12578154 L12.0780943,9.13482769 C12.6262657,9.13784308 12.9639514,9.47858154 12.9624371,9.98968923 C12.9594086,10.4992892 12.61718,10.83852 12.0705229,10.8355046 M14.1148086,0.0615353846 L9.33420857,0.203258462 C4.38552286,0.351012308 0.49078,4.46399692 0.63918,9.39264308 C0.786065714,14.3197815 4.91703714,18.1960585 9.86723714,18.0498123 L14.6463229,17.9080892 C19.5965229,17.7618431 23.4897514,13.6488585 23.3428657,8.72021231 C23.19598,3.79156615 19.0650086,-0.0832030769 14.1148086,0.0615353846" id="Fill-1" fill="#4489FF" mask="url(#mask-2)"></path>
                </g>
                <path d="M14.4194829,17.0535292 C14.4194829,13.8406369 12.7113686,10.9473754 9.32391143,10.9473754 C5.93645429,10.9473754 4.22834,13.8406369 4.22834,17.0535292 C4.22834,20.2920523 5.88194,23.1596831 9.32391143,23.1596831 C12.7658829,23.1596831 14.4194829,20.2920523 14.4194829,17.0535292 M0.000454285714,17.0535292 C0.000454285714,11.5308523 3.79525429,7.28368308 9.32391143,7.28368308 C14.7723114,7.28368308 18.6473686,11.6635292 18.6473686,17.0535292 C18.6473686,22.5490677 14.8798257,26.8233754 9.32391143,26.8233754 C3.82099714,26.8233754 0.000454285714,22.5490677 0.000454285714,17.0535292" id="Fill-4" fill="#4489FF"></path>
                <path d="M54.50626,26.66356 C53.34026,26.66356 52.4725743,25.9202677 52.4725743,24.5934985 L52.4725743,14.6909754 L52.4195743,14.6909754 L43.6382314,25.7875908 C43.1763743,26.3725754 42.4449743,26.66356 41.9301171,26.66356 C40.7641171,26.66356 39.8979457,25.9202677 39.8979457,24.5934985 L39.8979457,9.51356 C39.8979457,8.18679077 40.7641171,7.44199077 41.9301171,7.44199077 C43.0961171,7.44199077 43.9622886,8.18679077 43.9622886,9.51356 L43.9622886,19.54876 L44.0168029,19.54876 L52.7981457,8.31946769 C53.2600029,7.73448308 53.9914029,7.44199077 54.50626,7.44199077 C55.67226,7.44199077 56.5384314,8.18679077 56.5384314,9.51356 L56.5384314,24.5934985 C56.5384314,25.9202677 55.67226,26.66356 54.50626,26.66356" id="Fill-6" fill="#4489FF"></path>
                <path d="M59.79036,9.51356 C59.79036,8.18679077 60.6580457,7.44199077 61.8240457,7.44199077 C62.9885314,7.44199077 63.8562171,8.18679077 63.8562171,9.51356 L63.8562171,15.1417754 L72.3665029,15.1417754 L72.3665029,9.51356 C72.3665029,8.18679077 73.2341886,7.44199077 74.3986743,7.44199077 C75.5646743,7.44199077 76.43236,8.18679077 76.43236,9.51356 L76.43236,24.5934985 C76.43236,25.9202677 75.5646743,26.66356 74.3986743,26.66356 C73.2341886,26.66356 72.3665029,25.9202677 72.3665029,24.5934985 L72.3665029,18.8054677 L63.8562171,18.8054677 L63.8562171,24.5934985 C63.8562171,25.9202677 62.9885314,26.66356 61.8240457,26.66356 C60.6580457,26.66356 59.79036,25.9202677 59.79036,24.5934985 L59.79036,9.51356 Z" id="Fill-8" fill="#4489FF"></path>
                <path d="M30.5410229,22.8148738 L24.48388,22.8148738 L24.1386229,22.8148738 L28.5739657,11.7755508 C28.6769371,11.5207508 28.9207371,11.3564123 29.1948229,11.3564123 L31.7524514,11.3564123 L31.7524514,22.8148738 L30.5410229,22.8148738 Z M35.3867371,22.8766892 L35.3867371,9.54718154 C35.3867371,8.54908923 34.5735657,7.73795077 33.5695943,7.73795077 L29.1948229,7.73795077 C27.4246229,7.73795077 25.8573371,8.79635077 25.2001371,10.4321969 L20.2090514,22.8540738 C19.5427657,22.9490585 18.9673371,23.3877969 18.7432229,24.0361046 L18.2223086,25.5437969 C17.8967371,26.48912 18.4009943,27.5173662 19.3504514,27.8430277 C19.5457943,27.9093662 19.74568,27.9410277 19.9410229,27.9410277 C20.6951371,27.9410277 21.4007943,27.4706277 21.6597371,26.7197969 L21.7581657,26.4333354 L24.48388,26.4333354 L30.5410229,26.4333354 L33.29248,26.4333354 C33.4363371,27.2897046 34.1843943,27.9410277 35.08388,27.9410277 C36.0878514,27.9410277 36.9010229,27.1313969 36.9010229,26.1317969 L36.9010229,24.6241046 C36.9010229,23.7315508 36.2407943,23.0244431 35.3867371,22.8766892 L35.3867371,22.8766892 Z" id="Fill-10" fill="#4489FF"></path>
            </g>
        </g>
    </g>
</svg>